<?xml version="1.0" encoding="utf-8" standalone="no"?>
<!DOCTYPE svg PUBLIC "-//W3C//DTD SVG 1.1//EN"
  "http://www.w3.org/Graphics/SVG/1.1/DTD/svg11.dtd">
<svg xmlns:xlink="http://www.w3.org/1999/xlink" width="1014.47375pt" height="530.992992pt" viewBox="0 0 1014.47375 530.992992" xmlns="http://www.w3.org/2000/svg" version="1.1">
 <metadata>
  <rdf:RDF xmlns:dc="http://purl.org/dc/elements/1.1/" xmlns:cc="http://creativecommons.org/ns#" xmlns:rdf="http://www.w3.org/1999/02/22-rdf-syntax-ns#">
   <cc:Work>
    <dc:type rdf:resource="http://purl.org/dc/dcmitype/StillImage"/>
    <dc:date>2024-03-14T11:39:13.887786</dc:date>
    <dc:format>image/svg+xml</dc:format>
    <dc:creator>
     <cc:Agent>
      <dc:title>Matplotlib v3.5.1, https://matplotlib.org/</dc:title>
     </cc:Agent>
    </dc:creator>
   </cc:Work>
  </rdf:RDF>
 </metadata>
 <defs>
  <style type="text/css">*{stroke-linejoin: round; stroke-linecap: butt}</style>
 </defs>
 <g id="figure_1">
  <g id="patch_1">
   <path d="M 0 530.992992 
L 1014.47375 530.992992 
L 1014.47375 0 
L 0 0 
L 0 530.992992 
z
" style="fill: none"/>
  </g>
  <g id="axes_1">
   <g id="patch_2">
    <path d="M 57.91625 450.429688 
L 755.41625 450.429688 
L 755.41625 42.729688 
L 57.91625 42.729688 
z
" style="fill: #ffffff"/>
   </g>
   <g id="matplotlib.axis_1">
    <g id="xtick_1">
     <g id="line2d_1">
      <defs>
       <path id="mc4b2d5f362" d="M 0 0 
L 0 3.5 
" style="stroke: #000000; stroke-width: 0.8"/>
      </defs>
      <g>
       <use xlink:href="#mc4b2d5f362" x="89.620795" y="450.429688" style="stroke: #000000; stroke-width: 0.8"/>
      </g>
     </g>
     <g id="text_1">
      <!-- 1983 -->
      <g transform="translate(83.264298 498.772992)rotate(-60)scale(0.16 -0.16)">
       <defs>
        <path id="DejaVuSans-31" d="M 794 531 
L 1825 531 
L 1825 4091 
L 703 3866 
L 703 4441 
L 1819 4666 
L 2450 4666 
L 2450 531 
L 3481 531 
L 3481 0 
L 794 0 
L 794 531 
z
" transform="scale(0.015625)"/>
        <path id="DejaVuSans-39" d="M 703 97 
L 703 672 
Q 941 559 1184 500 
Q 1428 441 1663 441 
Q 2288 441 2617 861 
Q 2947 1281 2994 2138 
Q 2813 1869 2534 1725 
Q 2256 1581 1919 1581 
Q 1219 1581 811 2004 
Q 403 2428 403 3163 
Q 403 3881 828 4315 
Q 1253 4750 1959 4750 
Q 2769 4750 3195 4129 
Q 3622 3509 3622 2328 
Q 3622 1225 3098 567 
Q 2575 -91 1691 -91 
Q 1453 -91 1209 -44 
Q 966 3 703 97 
z
M 1959 2075 
Q 2384 2075 2632 2365 
Q 2881 2656 2881 3163 
Q 2881 3666 2632 3958 
Q 2384 4250 1959 4250 
Q 1534 4250 1286 3958 
Q 1038 3666 1038 3163 
Q 1038 2656 1286 2365 
Q 1534 2075 1959 2075 
z
" transform="scale(0.015625)"/>
        <path id="DejaVuSans-38" d="M 2034 2216 
Q 1584 2216 1326 1975 
Q 1069 1734 1069 1313 
Q 1069 891 1326 650 
Q 1584 409 2034 409 
Q 2484 409 2743 651 
Q 3003 894 3003 1313 
Q 3003 1734 2745 1975 
Q 2488 2216 2034 2216 
z
M 1403 2484 
Q 997 2584 770 2862 
Q 544 3141 544 3541 
Q 544 4100 942 4425 
Q 1341 4750 2034 4750 
Q 2731 4750 3128 4425 
Q 3525 4100 3525 3541 
Q 3525 3141 3298 2862 
Q 3072 2584 2669 2484 
Q 3125 2378 3379 2068 
Q 3634 1759 3634 1313 
Q 3634 634 3220 271 
Q 2806 -91 2034 -91 
Q 1263 -91 848 271 
Q 434 634 434 1313 
Q 434 1759 690 2068 
Q 947 2378 1403 2484 
z
M 1172 3481 
Q 1172 3119 1398 2916 
Q 1625 2713 2034 2713 
Q 2441 2713 2670 2916 
Q 2900 3119 2900 3481 
Q 2900 3844 2670 4047 
Q 2441 4250 2034 4250 
Q 1625 4250 1398 4047 
Q 1172 3844 1172 3481 
z
" transform="scale(0.015625)"/>
        <path id="DejaVuSans-33" d="M 2597 2516 
Q 3050 2419 3304 2112 
Q 3559 1806 3559 1356 
Q 3559 666 3084 287 
Q 2609 -91 1734 -91 
Q 1441 -91 1130 -33 
Q 819 25 488 141 
L 488 750 
Q 750 597 1062 519 
Q 1375 441 1716 441 
Q 2309 441 2620 675 
Q 2931 909 2931 1356 
Q 2931 1769 2642 2001 
Q 2353 2234 1838 2234 
L 1294 2234 
L 1294 2753 
L 1863 2753 
Q 2328 2753 2575 2939 
Q 2822 3125 2822 3475 
Q 2822 3834 2567 4026 
Q 2313 4219 1838 4219 
Q 1578 4219 1281 4162 
Q 984 4106 628 3988 
L 628 4550 
Q 988 4650 1302 4700 
Q 1616 4750 1894 4750 
Q 2613 4750 3031 4423 
Q 3450 4097 3450 3541 
Q 3450 3153 3228 2886 
Q 3006 2619 2597 2516 
z
" transform="scale(0.015625)"/>
       </defs>
       <use xlink:href="#DejaVuSans-31"/>
       <use xlink:href="#DejaVuSans-39" x="63.623047"/>
       <use xlink:href="#DejaVuSans-38" x="127.246094"/>
       <use xlink:href="#DejaVuSans-33" x="190.869141"/>
      </g>
     </g>
    </g>
    <g id="xtick_2">
     <g id="line2d_2">
      <g>
       <use xlink:href="#mc4b2d5f362" x="107.737679" y="450.429688" style="stroke: #000000; stroke-width: 0.8"/>
      </g>
     </g>
     <g id="text_2">
      <!-- 1984 -->
      <g transform="translate(101.381181 498.772992)rotate(-60)scale(0.16 -0.16)">
       <defs>
        <path id="DejaVuSans-34" d="M 2419 4116 
L 825 1625 
L 2419 1625 
L 2419 4116 
z
M 2253 4666 
L 3047 4666 
L 3047 1625 
L 3713 1625 
L 3713 1100 
L 3047 1100 
L 3047 0 
L 2419 0 
L 2419 1100 
L 313 1100 
L 313 1709 
L 2253 4666 
z
" transform="scale(0.015625)"/>
       </defs>
       <use xlink:href="#DejaVuSans-31"/>
       <use xlink:href="#DejaVuSans-39" x="63.623047"/>
       <use xlink:href="#DejaVuSans-38" x="127.246094"/>
       <use xlink:href="#DejaVuSans-34" x="190.869141"/>
      </g>
     </g>
    </g>
    <g id="xtick_3">
     <g id="line2d_3">
      <g>
       <use xlink:href="#mc4b2d5f362" x="125.854562" y="450.429688" style="stroke: #000000; stroke-width: 0.8"/>
      </g>
     </g>
     <g id="text_3">
      <!-- 1985 -->
      <g transform="translate(119.498064 498.772992)rotate(-60)scale(0.16 -0.16)">
       <defs>
        <path id="DejaVuSans-35" d="M 691 4666 
L 3169 4666 
L 3169 4134 
L 1269 4134 
L 1269 2991 
Q 1406 3038 1543 3061 
Q 1681 3084 1819 3084 
Q 2600 3084 3056 2656 
Q 3513 2228 3513 1497 
Q 3513 744 3044 326 
Q 2575 -91 1722 -91 
Q 1428 -91 1123 -41 
Q 819 9 494 109 
L 494 744 
Q 775 591 1075 516 
Q 1375 441 1709 441 
Q 2250 441 2565 725 
Q 2881 1009 2881 1497 
Q 2881 1984 2565 2268 
Q 2250 2553 1709 2553 
Q 1456 2553 1204 2497 
Q 953 2441 691 2322 
L 691 4666 
z
" transform="scale(0.015625)"/>
       </defs>
       <use xlink:href="#DejaVuSans-31"/>
       <use xlink:href="#DejaVuSans-39" x="63.623047"/>
       <use xlink:href="#DejaVuSans-38" x="127.246094"/>
       <use xlink:href="#DejaVuSans-35" x="190.869141"/>
      </g>
     </g>
    </g>
    <g id="xtick_4">
     <g id="line2d_4">
      <g>
       <use xlink:href="#mc4b2d5f362" x="143.971445" y="450.429688" style="stroke: #000000; stroke-width: 0.8"/>
      </g>
     </g>
     <g id="text_4">
      <!-- 1986 -->
      <g transform="translate(137.614947 498.772992)rotate(-60)scale(0.16 -0.16)">
       <defs>
        <path id="DejaVuSans-36" d="M 2113 2584 
Q 1688 2584 1439 2293 
Q 1191 2003 1191 1497 
Q 1191 994 1439 701 
Q 1688 409 2113 409 
Q 2538 409 2786 701 
Q 3034 994 3034 1497 
Q 3034 2003 2786 2293 
Q 2538 2584 2113 2584 
z
M 3366 4563 
L 3366 3988 
Q 3128 4100 2886 4159 
Q 2644 4219 2406 4219 
Q 1781 4219 1451 3797 
Q 1122 3375 1075 2522 
Q 1259 2794 1537 2939 
Q 1816 3084 2150 3084 
Q 2853 3084 3261 2657 
Q 3669 2231 3669 1497 
Q 3669 778 3244 343 
Q 2819 -91 2113 -91 
Q 1303 -91 875 529 
Q 447 1150 447 2328 
Q 447 3434 972 4092 
Q 1497 4750 2381 4750 
Q 2619 4750 2861 4703 
Q 3103 4656 3366 4563 
z
" transform="scale(0.015625)"/>
       </defs>
       <use xlink:href="#DejaVuSans-31"/>
       <use xlink:href="#DejaVuSans-39" x="63.623047"/>
       <use xlink:href="#DejaVuSans-38" x="127.246094"/>
       <use xlink:href="#DejaVuSans-36" x="190.869141"/>
      </g>
     </g>
    </g>
    <g id="xtick_5">
     <g id="line2d_5">
      <g>
       <use xlink:href="#mc4b2d5f362" x="162.088328" y="450.429688" style="stroke: #000000; stroke-width: 0.8"/>
      </g>
     </g>
     <g id="text_5">
      <!-- 1987 -->
      <g transform="translate(155.73183 498.772992)rotate(-60)scale(0.16 -0.16)">
       <defs>
        <path id="DejaVuSans-37" d="M 525 4666 
L 3525 4666 
L 3525 4397 
L 1831 0 
L 1172 0 
L 2766 4134 
L 525 4134 
L 525 4666 
z
" transform="scale(0.015625)"/>
       </defs>
       <use xlink:href="#DejaVuSans-31"/>
       <use xlink:href="#DejaVuSans-39" x="63.623047"/>
       <use xlink:href="#DejaVuSans-38" x="127.246094"/>
       <use xlink:href="#DejaVuSans-37" x="190.869141"/>
      </g>
     </g>
    </g>
    <g id="xtick_6">
     <g id="line2d_6">
      <g>
       <use xlink:href="#mc4b2d5f362" x="180.205211" y="450.429688" style="stroke: #000000; stroke-width: 0.8"/>
      </g>
     </g>
     <g id="text_6">
      <!-- 1988 -->
      <g transform="translate(173.848713 498.772992)rotate(-60)scale(0.16 -0.16)">
       <use xlink:href="#DejaVuSans-31"/>
       <use xlink:href="#DejaVuSans-39" x="63.623047"/>
       <use xlink:href="#DejaVuSans-38" x="127.246094"/>
       <use xlink:href="#DejaVuSans-38" x="190.869141"/>
      </g>
     </g>
    </g>
    <g id="xtick_7">
     <g id="line2d_7">
      <g>
       <use xlink:href="#mc4b2d5f362" x="198.322094" y="450.429688" style="stroke: #000000; stroke-width: 0.8"/>
      </g>
     </g>
     <g id="text_7">
      <!-- 1989 -->
      <g transform="translate(191.965596 498.772992)rotate(-60)scale(0.16 -0.16)">
       <use xlink:href="#DejaVuSans-31"/>
       <use xlink:href="#DejaVuSans-39" x="63.623047"/>
       <use xlink:href="#DejaVuSans-38" x="127.246094"/>
       <use xlink:href="#DejaVuSans-39" x="190.869141"/>
      </g>
     </g>
    </g>
    <g id="xtick_8">
     <g id="line2d_8">
      <g>
       <use xlink:href="#mc4b2d5f362" x="216.438977" y="450.429688" style="stroke: #000000; stroke-width: 0.8"/>
      </g>
     </g>
     <g id="text_8">
      <!-- 1990 -->
      <g transform="translate(210.082479 498.772992)rotate(-60)scale(0.16 -0.16)">
       <defs>
        <path id="DejaVuSans-30" d="M 2034 4250 
Q 1547 4250 1301 3770 
Q 1056 3291 1056 2328 
Q 1056 1369 1301 889 
Q 1547 409 2034 409 
Q 2525 409 2770 889 
Q 3016 1369 3016 2328 
Q 3016 3291 2770 3770 
Q 2525 4250 2034 4250 
z
M 2034 4750 
Q 2819 4750 3233 4129 
Q 3647 3509 3647 2328 
Q 3647 1150 3233 529 
Q 2819 -91 2034 -91 
Q 1250 -91 836 529 
Q 422 1150 422 2328 
Q 422 3509 836 4129 
Q 1250 4750 2034 4750 
z
" transform="scale(0.015625)"/>
       </defs>
       <use xlink:href="#DejaVuSans-31"/>
       <use xlink:href="#DejaVuSans-39" x="63.623047"/>
       <use xlink:href="#DejaVuSans-39" x="127.246094"/>
       <use xlink:href="#DejaVuSans-30" x="190.869141"/>
      </g>
     </g>
    </g>
    <g id="xtick_9">
     <g id="line2d_9">
      <g>
       <use xlink:href="#mc4b2d5f362" x="234.55586" y="450.429688" style="stroke: #000000; stroke-width: 0.8"/>
      </g>
     </g>
     <g id="text_9">
      <!-- 1991 -->
      <g transform="translate(228.199363 498.772992)rotate(-60)scale(0.16 -0.16)">
       <use xlink:href="#DejaVuSans-31"/>
       <use xlink:href="#DejaVuSans-39" x="63.623047"/>
       <use xlink:href="#DejaVuSans-39" x="127.246094"/>
       <use xlink:href="#DejaVuSans-31" x="190.869141"/>
      </g>
     </g>
    </g>
    <g id="xtick_10">
     <g id="line2d_10">
      <g>
       <use xlink:href="#mc4b2d5f362" x="252.672744" y="450.429688" style="stroke: #000000; stroke-width: 0.8"/>
      </g>
     </g>
     <g id="text_10">
      <!-- 1992 -->
      <g transform="translate(246.316246 498.772992)rotate(-60)scale(0.16 -0.16)">
       <defs>
        <path id="DejaVuSans-32" d="M 1228 531 
L 3431 531 
L 3431 0 
L 469 0 
L 469 531 
Q 828 903 1448 1529 
Q 2069 2156 2228 2338 
Q 2531 2678 2651 2914 
Q 2772 3150 2772 3378 
Q 2772 3750 2511 3984 
Q 2250 4219 1831 4219 
Q 1534 4219 1204 4116 
Q 875 4013 500 3803 
L 500 4441 
Q 881 4594 1212 4672 
Q 1544 4750 1819 4750 
Q 2544 4750 2975 4387 
Q 3406 4025 3406 3419 
Q 3406 3131 3298 2873 
Q 3191 2616 2906 2266 
Q 2828 2175 2409 1742 
Q 1991 1309 1228 531 
z
" transform="scale(0.015625)"/>
       </defs>
       <use xlink:href="#DejaVuSans-31"/>
       <use xlink:href="#DejaVuSans-39" x="63.623047"/>
       <use xlink:href="#DejaVuSans-39" x="127.246094"/>
       <use xlink:href="#DejaVuSans-32" x="190.869141"/>
      </g>
     </g>
    </g>
    <g id="xtick_11">
     <g id="line2d_11">
      <g>
       <use xlink:href="#mc4b2d5f362" x="270.789627" y="450.429688" style="stroke: #000000; stroke-width: 0.8"/>
      </g>
     </g>
     <g id="text_11">
      <!-- 1993 -->
      <g transform="translate(264.433129 498.772992)rotate(-60)scale(0.16 -0.16)">
       <use xlink:href="#DejaVuSans-31"/>
       <use xlink:href="#DejaVuSans-39" x="63.623047"/>
       <use xlink:href="#DejaVuSans-39" x="127.246094"/>
       <use xlink:href="#DejaVuSans-33" x="190.869141"/>
      </g>
     </g>
    </g>
    <g id="xtick_12">
     <g id="line2d_12">
      <g>
       <use xlink:href="#mc4b2d5f362" x="288.90651" y="450.429688" style="stroke: #000000; stroke-width: 0.8"/>
      </g>
     </g>
     <g id="text_12">
      <!-- 1994 -->
      <g transform="translate(282.550012 498.772992)rotate(-60)scale(0.16 -0.16)">
       <use xlink:href="#DejaVuSans-31"/>
       <use xlink:href="#DejaVuSans-39" x="63.623047"/>
       <use xlink:href="#DejaVuSans-39" x="127.246094"/>
       <use xlink:href="#DejaVuSans-34" x="190.869141"/>
      </g>
     </g>
    </g>
    <g id="xtick_13">
     <g id="line2d_13">
      <g>
       <use xlink:href="#mc4b2d5f362" x="307.023393" y="450.429688" style="stroke: #000000; stroke-width: 0.8"/>
      </g>
     </g>
     <g id="text_13">
      <!-- 1995 -->
      <g transform="translate(300.666895 498.772992)rotate(-60)scale(0.16 -0.16)">
       <use xlink:href="#DejaVuSans-31"/>
       <use xlink:href="#DejaVuSans-39" x="63.623047"/>
       <use xlink:href="#DejaVuSans-39" x="127.246094"/>
       <use xlink:href="#DejaVuSans-35" x="190.869141"/>
      </g>
     </g>
    </g>
    <g id="xtick_14">
     <g id="line2d_14">
      <g>
       <use xlink:href="#mc4b2d5f362" x="325.140276" y="450.429688" style="stroke: #000000; stroke-width: 0.8"/>
      </g>
     </g>
     <g id="text_14">
      <!-- 1996 -->
      <g transform="translate(318.783778 498.772992)rotate(-60)scale(0.16 -0.16)">
       <use xlink:href="#DejaVuSans-31"/>
       <use xlink:href="#DejaVuSans-39" x="63.623047"/>
       <use xlink:href="#DejaVuSans-39" x="127.246094"/>
       <use xlink:href="#DejaVuSans-36" x="190.869141"/>
      </g>
     </g>
    </g>
    <g id="xtick_15">
     <g id="line2d_15">
      <g>
       <use xlink:href="#mc4b2d5f362" x="343.257159" y="450.429688" style="stroke: #000000; stroke-width: 0.8"/>
      </g>
     </g>
     <g id="text_15">
      <!-- 1997 -->
      <g transform="translate(336.900661 498.772992)rotate(-60)scale(0.16 -0.16)">
       <use xlink:href="#DejaVuSans-31"/>
       <use xlink:href="#DejaVuSans-39" x="63.623047"/>
       <use xlink:href="#DejaVuSans-39" x="127.246094"/>
       <use xlink:href="#DejaVuSans-37" x="190.869141"/>
      </g>
     </g>
    </g>
    <g id="xtick_16">
     <g id="line2d_16">
      <g>
       <use xlink:href="#mc4b2d5f362" x="361.374042" y="450.429688" style="stroke: #000000; stroke-width: 0.8"/>
      </g>
     </g>
     <g id="text_16">
      <!-- 1998 -->
      <g transform="translate(355.017544 498.772992)rotate(-60)scale(0.16 -0.16)">
       <use xlink:href="#DejaVuSans-31"/>
       <use xlink:href="#DejaVuSans-39" x="63.623047"/>
       <use xlink:href="#DejaVuSans-39" x="127.246094"/>
       <use xlink:href="#DejaVuSans-38" x="190.869141"/>
      </g>
     </g>
    </g>
    <g id="xtick_17">
     <g id="line2d_17">
      <g>
       <use xlink:href="#mc4b2d5f362" x="379.490925" y="450.429688" style="stroke: #000000; stroke-width: 0.8"/>
      </g>
     </g>
     <g id="text_17">
      <!-- 1999 -->
      <g transform="translate(373.134427 498.772992)rotate(-60)scale(0.16 -0.16)">
       <use xlink:href="#DejaVuSans-31"/>
       <use xlink:href="#DejaVuSans-39" x="63.623047"/>
       <use xlink:href="#DejaVuSans-39" x="127.246094"/>
       <use xlink:href="#DejaVuSans-39" x="190.869141"/>
      </g>
     </g>
    </g>
    <g id="xtick_18">
     <g id="line2d_18">
      <g>
       <use xlink:href="#mc4b2d5f362" x="397.607808" y="450.429688" style="stroke: #000000; stroke-width: 0.8"/>
      </g>
     </g>
     <g id="text_18">
      <!-- 2000 -->
      <g transform="translate(391.251311 498.772992)rotate(-60)scale(0.16 -0.16)">
       <use xlink:href="#DejaVuSans-32"/>
       <use xlink:href="#DejaVuSans-30" x="63.623047"/>
       <use xlink:href="#DejaVuSans-30" x="127.246094"/>
       <use xlink:href="#DejaVuSans-30" x="190.869141"/>
      </g>
     </g>
    </g>
    <g id="xtick_19">
     <g id="line2d_19">
      <g>
       <use xlink:href="#mc4b2d5f362" x="415.724692" y="450.429688" style="stroke: #000000; stroke-width: 0.8"/>
      </g>
     </g>
     <g id="text_19">
      <!-- 2001 -->
      <g transform="translate(409.368194 498.772992)rotate(-60)scale(0.16 -0.16)">
       <use xlink:href="#DejaVuSans-32"/>
       <use xlink:href="#DejaVuSans-30" x="63.623047"/>
       <use xlink:href="#DejaVuSans-30" x="127.246094"/>
       <use xlink:href="#DejaVuSans-31" x="190.869141"/>
      </g>
     </g>
    </g>
    <g id="xtick_20">
     <g id="line2d_20">
      <g>
       <use xlink:href="#mc4b2d5f362" x="433.841575" y="450.429688" style="stroke: #000000; stroke-width: 0.8"/>
      </g>
     </g>
     <g id="text_20">
      <!-- 2002 -->
      <g transform="translate(427.485077 498.772992)rotate(-60)scale(0.16 -0.16)">
       <use xlink:href="#DejaVuSans-32"/>
       <use xlink:href="#DejaVuSans-30" x="63.623047"/>
       <use xlink:href="#DejaVuSans-30" x="127.246094"/>
       <use xlink:href="#DejaVuSans-32" x="190.869141"/>
      </g>
     </g>
    </g>
    <g id="xtick_21">
     <g id="line2d_21">
      <g>
       <use xlink:href="#mc4b2d5f362" x="451.958458" y="450.429688" style="stroke: #000000; stroke-width: 0.8"/>
      </g>
     </g>
     <g id="text_21">
      <!-- 2003 -->
      <g transform="translate(445.60196 498.772992)rotate(-60)scale(0.16 -0.16)">
       <use xlink:href="#DejaVuSans-32"/>
       <use xlink:href="#DejaVuSans-30" x="63.623047"/>
       <use xlink:href="#DejaVuSans-30" x="127.246094"/>
       <use xlink:href="#DejaVuSans-33" x="190.869141"/>
      </g>
     </g>
    </g>
    <g id="xtick_22">
     <g id="line2d_22">
      <g>
       <use xlink:href="#mc4b2d5f362" x="470.075341" y="450.429688" style="stroke: #000000; stroke-width: 0.8"/>
      </g>
     </g>
     <g id="text_22">
      <!-- 2004 -->
      <g transform="translate(463.718843 498.772992)rotate(-60)scale(0.16 -0.16)">
       <use xlink:href="#DejaVuSans-32"/>
       <use xlink:href="#DejaVuSans-30" x="63.623047"/>
       <use xlink:href="#DejaVuSans-30" x="127.246094"/>
       <use xlink:href="#DejaVuSans-34" x="190.869141"/>
      </g>
     </g>
    </g>
    <g id="xtick_23">
     <g id="line2d_23">
      <g>
       <use xlink:href="#mc4b2d5f362" x="488.192224" y="450.429688" style="stroke: #000000; stroke-width: 0.8"/>
      </g>
     </g>
     <g id="text_23">
      <!-- 2005 -->
      <g transform="translate(481.835726 498.772992)rotate(-60)scale(0.16 -0.16)">
       <use xlink:href="#DejaVuSans-32"/>
       <use xlink:href="#DejaVuSans-30" x="63.623047"/>
       <use xlink:href="#DejaVuSans-30" x="127.246094"/>
       <use xlink:href="#DejaVuSans-35" x="190.869141"/>
      </g>
     </g>
    </g>
    <g id="xtick_24">
     <g id="line2d_24">
      <g>
       <use xlink:href="#mc4b2d5f362" x="506.309107" y="450.429688" style="stroke: #000000; stroke-width: 0.8"/>
      </g>
     </g>
     <g id="text_24">
      <!-- 2006 -->
      <g transform="translate(499.952609 498.772992)rotate(-60)scale(0.16 -0.16)">
       <use xlink:href="#DejaVuSans-32"/>
       <use xlink:href="#DejaVuSans-30" x="63.623047"/>
       <use xlink:href="#DejaVuSans-30" x="127.246094"/>
       <use xlink:href="#DejaVuSans-36" x="190.869141"/>
      </g>
     </g>
    </g>
    <g id="xtick_25">
     <g id="line2d_25">
      <g>
       <use xlink:href="#mc4b2d5f362" x="524.42599" y="450.429688" style="stroke: #000000; stroke-width: 0.8"/>
      </g>
     </g>
     <g id="text_25">
      <!-- 2007 -->
      <g transform="translate(518.069492 498.772992)rotate(-60)scale(0.16 -0.16)">
       <use xlink:href="#DejaVuSans-32"/>
       <use xlink:href="#DejaVuSans-30" x="63.623047"/>
       <use xlink:href="#DejaVuSans-30" x="127.246094"/>
       <use xlink:href="#DejaVuSans-37" x="190.869141"/>
      </g>
     </g>
    </g>
    <g id="xtick_26">
     <g id="line2d_26">
      <g>
       <use xlink:href="#mc4b2d5f362" x="542.542873" y="450.429688" style="stroke: #000000; stroke-width: 0.8"/>
      </g>
     </g>
     <g id="text_26">
      <!-- 2008 -->
      <g transform="translate(536.186376 498.772992)rotate(-60)scale(0.16 -0.16)">
       <use xlink:href="#DejaVuSans-32"/>
       <use xlink:href="#DejaVuSans-30" x="63.623047"/>
       <use xlink:href="#DejaVuSans-30" x="127.246094"/>
       <use xlink:href="#DejaVuSans-38" x="190.869141"/>
      </g>
     </g>
    </g>
    <g id="xtick_27">
     <g id="line2d_27">
      <g>
       <use xlink:href="#mc4b2d5f362" x="560.659756" y="450.429688" style="stroke: #000000; stroke-width: 0.8"/>
      </g>
     </g>
     <g id="text_27">
      <!-- 2009 -->
      <g transform="translate(554.303259 498.772992)rotate(-60)scale(0.16 -0.16)">
       <use xlink:href="#DejaVuSans-32"/>
       <use xlink:href="#DejaVuSans-30" x="63.623047"/>
       <use xlink:href="#DejaVuSans-30" x="127.246094"/>
       <use xlink:href="#DejaVuSans-39" x="190.869141"/>
      </g>
     </g>
    </g>
    <g id="xtick_28">
     <g id="line2d_28">
      <g>
       <use xlink:href="#mc4b2d5f362" x="578.77664" y="450.429688" style="stroke: #000000; stroke-width: 0.8"/>
      </g>
     </g>
     <g id="text_28">
      <!-- 2010 -->
      <g transform="translate(572.420142 498.772992)rotate(-60)scale(0.16 -0.16)">
       <use xlink:href="#DejaVuSans-32"/>
       <use xlink:href="#DejaVuSans-30" x="63.623047"/>
       <use xlink:href="#DejaVuSans-31" x="127.246094"/>
       <use xlink:href="#DejaVuSans-30" x="190.869141"/>
      </g>
     </g>
    </g>
    <g id="xtick_29">
     <g id="line2d_29">
      <g>
       <use xlink:href="#mc4b2d5f362" x="596.893523" y="450.429688" style="stroke: #000000; stroke-width: 0.8"/>
      </g>
     </g>
     <g id="text_29">
      <!-- 2011 -->
      <g transform="translate(590.537025 498.772992)rotate(-60)scale(0.16 -0.16)">
       <use xlink:href="#DejaVuSans-32"/>
       <use xlink:href="#DejaVuSans-30" x="63.623047"/>
       <use xlink:href="#DejaVuSans-31" x="127.246094"/>
       <use xlink:href="#DejaVuSans-31" x="190.869141"/>
      </g>
     </g>
    </g>
    <g id="xtick_30">
     <g id="line2d_30">
      <g>
       <use xlink:href="#mc4b2d5f362" x="615.010406" y="450.429688" style="stroke: #000000; stroke-width: 0.8"/>
      </g>
     </g>
     <g id="text_30">
      <!-- 2012 -->
      <g transform="translate(608.653908 498.772992)rotate(-60)scale(0.16 -0.16)">
       <use xlink:href="#DejaVuSans-32"/>
       <use xlink:href="#DejaVuSans-30" x="63.623047"/>
       <use xlink:href="#DejaVuSans-31" x="127.246094"/>
       <use xlink:href="#DejaVuSans-32" x="190.869141"/>
      </g>
     </g>
    </g>
    <g id="xtick_31">
     <g id="line2d_31">
      <g>
       <use xlink:href="#mc4b2d5f362" x="633.127289" y="450.429688" style="stroke: #000000; stroke-width: 0.8"/>
      </g>
     </g>
     <g id="text_31">
      <!-- 2013 -->
      <g transform="translate(626.770791 498.772992)rotate(-60)scale(0.16 -0.16)">
       <use xlink:href="#DejaVuSans-32"/>
       <use xlink:href="#DejaVuSans-30" x="63.623047"/>
       <use xlink:href="#DejaVuSans-31" x="127.246094"/>
       <use xlink:href="#DejaVuSans-33" x="190.869141"/>
      </g>
     </g>
    </g>
    <g id="xtick_32">
     <g id="line2d_32">
      <g>
       <use xlink:href="#mc4b2d5f362" x="651.244172" y="450.429688" style="stroke: #000000; stroke-width: 0.8"/>
      </g>
     </g>
     <g id="text_32">
      <!-- 2014 -->
      <g transform="translate(644.887674 498.772992)rotate(-60)scale(0.16 -0.16)">
       <use xlink:href="#DejaVuSans-32"/>
       <use xlink:href="#DejaVuSans-30" x="63.623047"/>
       <use xlink:href="#DejaVuSans-31" x="127.246094"/>
       <use xlink:href="#DejaVuSans-34" x="190.869141"/>
      </g>
     </g>
    </g>
    <g id="xtick_33">
     <g id="line2d_33">
      <g>
       <use xlink:href="#mc4b2d5f362" x="669.361055" y="450.429688" style="stroke: #000000; stroke-width: 0.8"/>
      </g>
     </g>
     <g id="text_33">
      <!-- 2015 -->
      <g transform="translate(663.004557 498.772992)rotate(-60)scale(0.16 -0.16)">
       <use xlink:href="#DejaVuSans-32"/>
       <use xlink:href="#DejaVuSans-30" x="63.623047"/>
       <use xlink:href="#DejaVuSans-31" x="127.246094"/>
       <use xlink:href="#DejaVuSans-35" x="190.869141"/>
      </g>
     </g>
    </g>
    <g id="xtick_34">
     <g id="line2d_34">
      <g>
       <use xlink:href="#mc4b2d5f362" x="687.477938" y="450.429688" style="stroke: #000000; stroke-width: 0.8"/>
      </g>
     </g>
     <g id="text_34">
      <!-- 2016 -->
      <g transform="translate(681.12144 498.772992)rotate(-60)scale(0.16 -0.16)">
       <use xlink:href="#DejaVuSans-32"/>
       <use xlink:href="#DejaVuSans-30" x="63.623047"/>
       <use xlink:href="#DejaVuSans-31" x="127.246094"/>
       <use xlink:href="#DejaVuSans-36" x="190.869141"/>
      </g>
     </g>
    </g>
    <g id="xtick_35">
     <g id="line2d_35">
      <g>
       <use xlink:href="#mc4b2d5f362" x="705.594821" y="450.429688" style="stroke: #000000; stroke-width: 0.8"/>
      </g>
     </g>
     <g id="text_35">
      <!-- 2017 -->
      <g transform="translate(699.238324 498.772992)rotate(-60)scale(0.16 -0.16)">
       <use xlink:href="#DejaVuSans-32"/>
       <use xlink:href="#DejaVuSans-30" x="63.623047"/>
       <use xlink:href="#DejaVuSans-31" x="127.246094"/>
       <use xlink:href="#DejaVuSans-37" x="190.869141"/>
      </g>
     </g>
    </g>
    <g id="xtick_36">
     <g id="line2d_36">
      <g>
       <use xlink:href="#mc4b2d5f362" x="723.711705" y="450.429688" style="stroke: #000000; stroke-width: 0.8"/>
      </g>
     </g>
     <g id="text_36">
      <!-- 2018 -->
      <g transform="translate(717.355207 498.772992)rotate(-60)scale(0.16 -0.16)">
       <use xlink:href="#DejaVuSans-32"/>
       <use xlink:href="#DejaVuSans-30" x="63.623047"/>
       <use xlink:href="#DejaVuSans-31" x="127.246094"/>
       <use xlink:href="#DejaVuSans-38" x="190.869141"/>
      </g>
     </g>
    </g>
    <g id="text_37">
     <!-- Year -->
     <g transform="translate(385.49125 519.633617)scale(0.2 -0.2)">
      <defs>
       <path id="DejaVuSans-59" d="M -13 4666 
L 666 4666 
L 1959 2747 
L 3244 4666 
L 3922 4666 
L 2272 2222 
L 2272 0 
L 1638 0 
L 1638 2222 
L -13 4666 
z
" transform="scale(0.015625)"/>
       <path id="DejaVuSans-65" d="M 3597 1894 
L 3597 1613 
L 953 1613 
Q 991 1019 1311 708 
Q 1631 397 2203 397 
Q 2534 397 2845 478 
Q 3156 559 3463 722 
L 3463 178 
Q 3153 47 2828 -22 
Q 2503 -91 2169 -91 
Q 1331 -91 842 396 
Q 353 884 353 1716 
Q 353 2575 817 3079 
Q 1281 3584 2069 3584 
Q 2775 3584 3186 3129 
Q 3597 2675 3597 1894 
z
M 3022 2063 
Q 3016 2534 2758 2815 
Q 2500 3097 2075 3097 
Q 1594 3097 1305 2825 
Q 1016 2553 972 2059 
L 3022 2063 
z
" transform="scale(0.015625)"/>
       <path id="DejaVuSans-61" d="M 2194 1759 
Q 1497 1759 1228 1600 
Q 959 1441 959 1056 
Q 959 750 1161 570 
Q 1363 391 1709 391 
Q 2188 391 2477 730 
Q 2766 1069 2766 1631 
L 2766 1759 
L 2194 1759 
z
M 3341 1997 
L 3341 0 
L 2766 0 
L 2766 531 
Q 2569 213 2275 61 
Q 1981 -91 1556 -91 
Q 1019 -91 701 211 
Q 384 513 384 1019 
Q 384 1609 779 1909 
Q 1175 2209 1959 2209 
L 2766 2209 
L 2766 2266 
Q 2766 2663 2505 2880 
Q 2244 3097 1772 3097 
Q 1472 3097 1187 3025 
Q 903 2953 641 2809 
L 641 3341 
Q 956 3463 1253 3523 
Q 1550 3584 1831 3584 
Q 2591 3584 2966 3190 
Q 3341 2797 3341 1997 
z
" transform="scale(0.015625)"/>
       <path id="DejaVuSans-72" d="M 2631 2963 
Q 2534 3019 2420 3045 
Q 2306 3072 2169 3072 
Q 1681 3072 1420 2755 
Q 1159 2438 1159 1844 
L 1159 0 
L 581 0 
L 581 3500 
L 1159 3500 
L 1159 2956 
Q 1341 3275 1631 3429 
Q 1922 3584 2338 3584 
Q 2397 3584 2469 3576 
Q 2541 3569 2628 3553 
L 2631 2963 
z
" transform="scale(0.015625)"/>
      </defs>
      <use xlink:href="#DejaVuSans-59"/>
      <use xlink:href="#DejaVuSans-65" x="47.833984"/>
      <use xlink:href="#DejaVuSans-61" x="109.357422"/>
      <use xlink:href="#DejaVuSans-72" x="170.636719"/>
     </g>
    </g>
   </g>
   <g id="matplotlib.axis_2">
    <g id="ytick_1">
     <g id="line2d_37">
      <defs>
       <path id="m3961e58fa7" d="M 0 0 
L -3.5 0 
" style="stroke: #000000; stroke-width: 0.8"/>
      </defs>
      <g>
       <use xlink:href="#m3961e58fa7" x="57.91625" y="450.429688" style="stroke: #000000; stroke-width: 0.8"/>
      </g>
     </g>
     <g id="text_38">
      <!-- 0 -->
      <g transform="translate(40.73625 456.508438)scale(0.16 -0.16)">
       <use xlink:href="#DejaVuSans-30"/>
      </g>
     </g>
    </g>
    <g id="ytick_2">
     <g id="line2d_38">
      <g>
       <use xlink:href="#m3961e58fa7" x="57.91625" y="394.484576" style="stroke: #000000; stroke-width: 0.8"/>
      </g>
     </g>
     <g id="text_39">
      <!-- 5 -->
      <g transform="translate(40.73625 400.563326)scale(0.16 -0.16)">
       <use xlink:href="#DejaVuSans-35"/>
      </g>
     </g>
    </g>
    <g id="ytick_3">
     <g id="line2d_39">
      <g>
       <use xlink:href="#m3961e58fa7" x="57.91625" y="338.539465" style="stroke: #000000; stroke-width: 0.8"/>
      </g>
     </g>
     <g id="text_40">
      <!-- 10 -->
      <g transform="translate(30.55625 344.618215)scale(0.16 -0.16)">
       <use xlink:href="#DejaVuSans-31"/>
       <use xlink:href="#DejaVuSans-30" x="63.623047"/>
      </g>
     </g>
    </g>
    <g id="ytick_4">
     <g id="line2d_40">
      <g>
       <use xlink:href="#m3961e58fa7" x="57.91625" y="282.594353" style="stroke: #000000; stroke-width: 0.8"/>
      </g>
     </g>
     <g id="text_41">
      <!-- 15 -->
      <g transform="translate(30.55625 288.673103)scale(0.16 -0.16)">
       <use xlink:href="#DejaVuSans-31"/>
       <use xlink:href="#DejaVuSans-35" x="63.623047"/>
      </g>
     </g>
    </g>
    <g id="ytick_5">
     <g id="line2d_41">
      <g>
       <use xlink:href="#m3961e58fa7" x="57.91625" y="226.649242" style="stroke: #000000; stroke-width: 0.8"/>
      </g>
     </g>
     <g id="text_42">
      <!-- 20 -->
      <g transform="translate(30.55625 232.727992)scale(0.16 -0.16)">
       <use xlink:href="#DejaVuSans-32"/>
       <use xlink:href="#DejaVuSans-30" x="63.623047"/>
      </g>
     </g>
    </g>
    <g id="ytick_6">
     <g id="line2d_42">
      <g>
       <use xlink:href="#m3961e58fa7" x="57.91625" y="170.70413" style="stroke: #000000; stroke-width: 0.8"/>
      </g>
     </g>
     <g id="text_43">
      <!-- 25 -->
      <g transform="translate(30.55625 176.78288)scale(0.16 -0.16)">
       <use xlink:href="#DejaVuSans-32"/>
       <use xlink:href="#DejaVuSans-35" x="63.623047"/>
      </g>
     </g>
    </g>
    <g id="ytick_7">
     <g id="line2d_43">
      <g>
       <use xlink:href="#m3961e58fa7" x="57.91625" y="114.759019" style="stroke: #000000; stroke-width: 0.8"/>
      </g>
     </g>
     <g id="text_44">
      <!-- 30 -->
      <g transform="translate(30.55625 120.837769)scale(0.16 -0.16)">
       <use xlink:href="#DejaVuSans-33"/>
       <use xlink:href="#DejaVuSans-30" x="63.623047"/>
      </g>
     </g>
    </g>
    <g id="ytick_8">
     <g id="line2d_44">
      <g>
       <use xlink:href="#m3961e58fa7" x="57.91625" y="58.813907" style="stroke: #000000; stroke-width: 0.8"/>
      </g>
     </g>
     <g id="text_45">
      <!-- 35 -->
      <g transform="translate(30.55625 64.892657)scale(0.16 -0.16)">
       <use xlink:href="#DejaVuSans-33"/>
       <use xlink:href="#DejaVuSans-35" x="63.623047"/>
      </g>
     </g>
    </g>
    <g id="text_46">
     <!-- Percentage of all games during year, per region -->
     <g transform="translate(22.396875 485.959375)rotate(-90)scale(0.2 -0.2)">
      <defs>
       <path id="DejaVuSans-50" d="M 1259 4147 
L 1259 2394 
L 2053 2394 
Q 2494 2394 2734 2622 
Q 2975 2850 2975 3272 
Q 2975 3691 2734 3919 
Q 2494 4147 2053 4147 
L 1259 4147 
z
M 628 4666 
L 2053 4666 
Q 2838 4666 3239 4311 
Q 3641 3956 3641 3272 
Q 3641 2581 3239 2228 
Q 2838 1875 2053 1875 
L 1259 1875 
L 1259 0 
L 628 0 
L 628 4666 
z
" transform="scale(0.015625)"/>
       <path id="DejaVuSans-63" d="M 3122 3366 
L 3122 2828 
Q 2878 2963 2633 3030 
Q 2388 3097 2138 3097 
Q 1578 3097 1268 2742 
Q 959 2388 959 1747 
Q 959 1106 1268 751 
Q 1578 397 2138 397 
Q 2388 397 2633 464 
Q 2878 531 3122 666 
L 3122 134 
Q 2881 22 2623 -34 
Q 2366 -91 2075 -91 
Q 1284 -91 818 406 
Q 353 903 353 1747 
Q 353 2603 823 3093 
Q 1294 3584 2113 3584 
Q 2378 3584 2631 3529 
Q 2884 3475 3122 3366 
z
" transform="scale(0.015625)"/>
       <path id="DejaVuSans-6e" d="M 3513 2113 
L 3513 0 
L 2938 0 
L 2938 2094 
Q 2938 2591 2744 2837 
Q 2550 3084 2163 3084 
Q 1697 3084 1428 2787 
Q 1159 2491 1159 1978 
L 1159 0 
L 581 0 
L 581 3500 
L 1159 3500 
L 1159 2956 
Q 1366 3272 1645 3428 
Q 1925 3584 2291 3584 
Q 2894 3584 3203 3211 
Q 3513 2838 3513 2113 
z
" transform="scale(0.015625)"/>
       <path id="DejaVuSans-74" d="M 1172 4494 
L 1172 3500 
L 2356 3500 
L 2356 3053 
L 1172 3053 
L 1172 1153 
Q 1172 725 1289 603 
Q 1406 481 1766 481 
L 2356 481 
L 2356 0 
L 1766 0 
Q 1100 0 847 248 
Q 594 497 594 1153 
L 594 3053 
L 172 3053 
L 172 3500 
L 594 3500 
L 594 4494 
L 1172 4494 
z
" transform="scale(0.015625)"/>
       <path id="DejaVuSans-67" d="M 2906 1791 
Q 2906 2416 2648 2759 
Q 2391 3103 1925 3103 
Q 1463 3103 1205 2759 
Q 947 2416 947 1791 
Q 947 1169 1205 825 
Q 1463 481 1925 481 
Q 2391 481 2648 825 
Q 2906 1169 2906 1791 
z
M 3481 434 
Q 3481 -459 3084 -895 
Q 2688 -1331 1869 -1331 
Q 1566 -1331 1297 -1286 
Q 1028 -1241 775 -1147 
L 775 -588 
Q 1028 -725 1275 -790 
Q 1522 -856 1778 -856 
Q 2344 -856 2625 -561 
Q 2906 -266 2906 331 
L 2906 616 
Q 2728 306 2450 153 
Q 2172 0 1784 0 
Q 1141 0 747 490 
Q 353 981 353 1791 
Q 353 2603 747 3093 
Q 1141 3584 1784 3584 
Q 2172 3584 2450 3431 
Q 2728 3278 2906 2969 
L 2906 3500 
L 3481 3500 
L 3481 434 
z
" transform="scale(0.015625)"/>
       <path id="DejaVuSans-20" transform="scale(0.015625)"/>
       <path id="DejaVuSans-6f" d="M 1959 3097 
Q 1497 3097 1228 2736 
Q 959 2375 959 1747 
Q 959 1119 1226 758 
Q 1494 397 1959 397 
Q 2419 397 2687 759 
Q 2956 1122 2956 1747 
Q 2956 2369 2687 2733 
Q 2419 3097 1959 3097 
z
M 1959 3584 
Q 2709 3584 3137 3096 
Q 3566 2609 3566 1747 
Q 3566 888 3137 398 
Q 2709 -91 1959 -91 
Q 1206 -91 779 398 
Q 353 888 353 1747 
Q 353 2609 779 3096 
Q 1206 3584 1959 3584 
z
" transform="scale(0.015625)"/>
       <path id="DejaVuSans-66" d="M 2375 4863 
L 2375 4384 
L 1825 4384 
Q 1516 4384 1395 4259 
Q 1275 4134 1275 3809 
L 1275 3500 
L 2222 3500 
L 2222 3053 
L 1275 3053 
L 1275 0 
L 697 0 
L 697 3053 
L 147 3053 
L 147 3500 
L 697 3500 
L 697 3744 
Q 697 4328 969 4595 
Q 1241 4863 1831 4863 
L 2375 4863 
z
" transform="scale(0.015625)"/>
       <path id="DejaVuSans-6c" d="M 603 4863 
L 1178 4863 
L 1178 0 
L 603 0 
L 603 4863 
z
" transform="scale(0.015625)"/>
       <path id="DejaVuSans-6d" d="M 3328 2828 
Q 3544 3216 3844 3400 
Q 4144 3584 4550 3584 
Q 5097 3584 5394 3201 
Q 5691 2819 5691 2113 
L 5691 0 
L 5113 0 
L 5113 2094 
Q 5113 2597 4934 2840 
Q 4756 3084 4391 3084 
Q 3944 3084 3684 2787 
Q 3425 2491 3425 1978 
L 3425 0 
L 2847 0 
L 2847 2094 
Q 2847 2600 2669 2842 
Q 2491 3084 2119 3084 
Q 1678 3084 1418 2786 
Q 1159 2488 1159 1978 
L 1159 0 
L 581 0 
L 581 3500 
L 1159 3500 
L 1159 2956 
Q 1356 3278 1631 3431 
Q 1906 3584 2284 3584 
Q 2666 3584 2933 3390 
Q 3200 3197 3328 2828 
z
" transform="scale(0.015625)"/>
       <path id="DejaVuSans-73" d="M 2834 3397 
L 2834 2853 
Q 2591 2978 2328 3040 
Q 2066 3103 1784 3103 
Q 1356 3103 1142 2972 
Q 928 2841 928 2578 
Q 928 2378 1081 2264 
Q 1234 2150 1697 2047 
L 1894 2003 
Q 2506 1872 2764 1633 
Q 3022 1394 3022 966 
Q 3022 478 2636 193 
Q 2250 -91 1575 -91 
Q 1294 -91 989 -36 
Q 684 19 347 128 
L 347 722 
Q 666 556 975 473 
Q 1284 391 1588 391 
Q 1994 391 2212 530 
Q 2431 669 2431 922 
Q 2431 1156 2273 1281 
Q 2116 1406 1581 1522 
L 1381 1569 
Q 847 1681 609 1914 
Q 372 2147 372 2553 
Q 372 3047 722 3315 
Q 1072 3584 1716 3584 
Q 2034 3584 2315 3537 
Q 2597 3491 2834 3397 
z
" transform="scale(0.015625)"/>
       <path id="DejaVuSans-64" d="M 2906 2969 
L 2906 4863 
L 3481 4863 
L 3481 0 
L 2906 0 
L 2906 525 
Q 2725 213 2448 61 
Q 2172 -91 1784 -91 
Q 1150 -91 751 415 
Q 353 922 353 1747 
Q 353 2572 751 3078 
Q 1150 3584 1784 3584 
Q 2172 3584 2448 3432 
Q 2725 3281 2906 2969 
z
M 947 1747 
Q 947 1113 1208 752 
Q 1469 391 1925 391 
Q 2381 391 2643 752 
Q 2906 1113 2906 1747 
Q 2906 2381 2643 2742 
Q 2381 3103 1925 3103 
Q 1469 3103 1208 2742 
Q 947 2381 947 1747 
z
" transform="scale(0.015625)"/>
       <path id="DejaVuSans-75" d="M 544 1381 
L 544 3500 
L 1119 3500 
L 1119 1403 
Q 1119 906 1312 657 
Q 1506 409 1894 409 
Q 2359 409 2629 706 
Q 2900 1003 2900 1516 
L 2900 3500 
L 3475 3500 
L 3475 0 
L 2900 0 
L 2900 538 
Q 2691 219 2414 64 
Q 2138 -91 1772 -91 
Q 1169 -91 856 284 
Q 544 659 544 1381 
z
M 1991 3584 
L 1991 3584 
z
" transform="scale(0.015625)"/>
       <path id="DejaVuSans-69" d="M 603 3500 
L 1178 3500 
L 1178 0 
L 603 0 
L 603 3500 
z
M 603 4863 
L 1178 4863 
L 1178 4134 
L 603 4134 
L 603 4863 
z
" transform="scale(0.015625)"/>
       <path id="DejaVuSans-79" d="M 2059 -325 
Q 1816 -950 1584 -1140 
Q 1353 -1331 966 -1331 
L 506 -1331 
L 506 -850 
L 844 -850 
Q 1081 -850 1212 -737 
Q 1344 -625 1503 -206 
L 1606 56 
L 191 3500 
L 800 3500 
L 1894 763 
L 2988 3500 
L 3597 3500 
L 2059 -325 
z
" transform="scale(0.015625)"/>
       <path id="DejaVuSans-2c" d="M 750 794 
L 1409 794 
L 1409 256 
L 897 -744 
L 494 -744 
L 750 256 
L 750 794 
z
" transform="scale(0.015625)"/>
       <path id="DejaVuSans-70" d="M 1159 525 
L 1159 -1331 
L 581 -1331 
L 581 3500 
L 1159 3500 
L 1159 2969 
Q 1341 3281 1617 3432 
Q 1894 3584 2278 3584 
Q 2916 3584 3314 3078 
Q 3713 2572 3713 1747 
Q 3713 922 3314 415 
Q 2916 -91 2278 -91 
Q 1894 -91 1617 61 
Q 1341 213 1159 525 
z
M 3116 1747 
Q 3116 2381 2855 2742 
Q 2594 3103 2138 3103 
Q 1681 3103 1420 2742 
Q 1159 2381 1159 1747 
Q 1159 1113 1420 752 
Q 1681 391 2138 391 
Q 2594 391 2855 752 
Q 3116 1113 3116 1747 
z
" transform="scale(0.015625)"/>
      </defs>
      <use xlink:href="#DejaVuSans-50"/>
      <use xlink:href="#DejaVuSans-65" x="56.677734"/>
      <use xlink:href="#DejaVuSans-72" x="118.201172"/>
      <use xlink:href="#DejaVuSans-63" x="157.064453"/>
      <use xlink:href="#DejaVuSans-65" x="212.044922"/>
      <use xlink:href="#DejaVuSans-6e" x="273.568359"/>
      <use xlink:href="#DejaVuSans-74" x="336.947266"/>
      <use xlink:href="#DejaVuSans-61" x="376.15625"/>
      <use xlink:href="#DejaVuSans-67" x="437.435547"/>
      <use xlink:href="#DejaVuSans-65" x="500.912109"/>
      <use xlink:href="#DejaVuSans-20" x="562.435547"/>
      <use xlink:href="#DejaVuSans-6f" x="594.222656"/>
      <use xlink:href="#DejaVuSans-66" x="655.404297"/>
      <use xlink:href="#DejaVuSans-20" x="690.609375"/>
      <use xlink:href="#DejaVuSans-61" x="722.396484"/>
      <use xlink:href="#DejaVuSans-6c" x="783.675781"/>
      <use xlink:href="#DejaVuSans-6c" x="811.458984"/>
      <use xlink:href="#DejaVuSans-20" x="839.242188"/>
      <use xlink:href="#DejaVuSans-67" x="871.029297"/>
      <use xlink:href="#DejaVuSans-61" x="934.505859"/>
      <use xlink:href="#DejaVuSans-6d" x="995.785156"/>
      <use xlink:href="#DejaVuSans-65" x="1093.197266"/>
      <use xlink:href="#DejaVuSans-73" x="1154.720703"/>
      <use xlink:href="#DejaVuSans-20" x="1206.820312"/>
      <use xlink:href="#DejaVuSans-64" x="1238.607422"/>
      <use xlink:href="#DejaVuSans-75" x="1302.083984"/>
      <use xlink:href="#DejaVuSans-72" x="1365.462891"/>
      <use xlink:href="#DejaVuSans-69" x="1406.576172"/>
      <use xlink:href="#DejaVuSans-6e" x="1434.359375"/>
      <use xlink:href="#DejaVuSans-67" x="1497.738281"/>
      <use xlink:href="#DejaVuSans-20" x="1561.214844"/>
      <use xlink:href="#DejaVuSans-79" x="1593.001953"/>
      <use xlink:href="#DejaVuSans-65" x="1652.181641"/>
      <use xlink:href="#DejaVuSans-61" x="1713.705078"/>
      <use xlink:href="#DejaVuSans-72" x="1774.984375"/>
      <use xlink:href="#DejaVuSans-2c" x="1816.097656"/>
      <use xlink:href="#DejaVuSans-20" x="1847.884766"/>
      <use xlink:href="#DejaVuSans-70" x="1879.671875"/>
      <use xlink:href="#DejaVuSans-65" x="1943.148438"/>
      <use xlink:href="#DejaVuSans-72" x="2004.671875"/>
      <use xlink:href="#DejaVuSans-20" x="2045.785156"/>
      <use xlink:href="#DejaVuSans-72" x="2077.572266"/>
      <use xlink:href="#DejaVuSans-65" x="2116.435547"/>
      <use xlink:href="#DejaVuSans-67" x="2177.958984"/>
      <use xlink:href="#DejaVuSans-69" x="2241.435547"/>
      <use xlink:href="#DejaVuSans-6f" x="2269.21875"/>
      <use xlink:href="#DejaVuSans-6e" x="2330.400391"/>
     </g>
    </g>
   </g>
   <g id="line2d_45">
    <path d="M 89.620795 290.586512 
L 107.737679 201.784748 
L 125.854562 347.372903 
L 143.971445 386.752325 
L 162.088328 297.486217 
L 180.205211 262.454113 
L 198.322094 302.339686 
L 216.438977 366.51202 
L 234.55586 329.067276 
L 252.672744 256.959561 
L 270.789627 255.694491 
L 288.90651 264.842539 
L 307.023393 317.64168 
L 325.140276 337.977202 
L 343.257159 329.617985 
L 361.374042 360.997005 
L 379.490925 343.137693 
L 397.607808 283.730935 
L 415.724692 358.90998 
L 433.841575 276.482702 
L 451.958458 360.706395 
L 470.075341 374.766217 
L 488.192224 388.001666 
L 506.309107 373.905875 
L 524.42599 402.660463 
L 542.542873 385.092331 
L 560.659756 384.033291 
L 578.77664 401.781764 
L 596.893523 387.435192 
L 615.010406 417.649349 
L 633.127289 403.808761 
L 651.244172 410.705348 
L 669.361055 405.927894 
L 687.477938 392.936688 
L 705.594821 403.152128 
L 723.711705 377.872888 
" clip-path="url(#p0c6a3474b2)" style="fill: none; stroke: #ff0000; stroke-width: 1.5; stroke-linecap: square"/>
   </g>
   <g id="line2d_46">
    <path d="M 89.620795 450.429688 
L 107.737679 450.429688 
L 125.854562 450.429688 
L 143.971445 450.429688 
L 162.088328 450.429688 
L 180.205211 450.429688 
L 198.322094 450.429688 
L 216.438977 353.133841 
L 234.55586 240.635519 
L 252.672744 283.2374 
L 270.789627 387.095599 
L 288.90651 296.854872 
L 307.023393 347.542126 
L 325.140276 307.824501 
L 343.257159 246.992918 
L 361.374042 113.672706 
L 379.490925 330.935275 
L 397.607808 248.888292 
L 415.724692 198.045726 
L 433.841575 168.691716 
L 451.958458 218.612927 
L 470.075341 285.345752 
L 488.192224 272.163909 
L 506.309107 276.91009 
L 524.42599 276.546233 
L 542.542873 262.062309 
L 560.659756 326.537399 
L 578.77664 317.312702 
L 596.893523 371.023723 
L 615.010406 341.563525 
L 633.127289 350.527703 
L 651.244172 404.892969 
L 669.361055 362.67265 
L 687.477938 363.139443 
L 705.594821 372.593011 
L 723.711705 418.153662 
" clip-path="url(#p0c6a3474b2)" style="fill: none; stroke: #000000; stroke-width: 1.5; stroke-linecap: square"/>
   </g>
   <g id="line2d_47">
    <path d="M 89.620795 450.429688 
L 107.737679 450.429688 
L 125.854562 77.462278 
L 143.971445 332.650505 
L 162.088328 155.981732 
L 180.205211 248.405674 
L 198.322094 279.486291 
L 216.438977 287.551515 
L 234.55586 292.673237 
L 252.672744 223.875104 
L 270.789627 272.217437 
L 288.90651 201.579933 
L 307.023393 182.810703 
L 325.140276 186.511717 
L 343.257159 182.626859 
L 361.374042 163.244782 
L 379.490925 142.731574 
L 397.607808 165.304023 
L 415.724692 173.995019 
L 433.841575 158.483111 
L 451.958458 219.894714 
L 470.075341 245.58451 
L 488.192224 288.869819 
L 506.309107 266.710279 
L 524.42599 289.904005 
L 542.542873 269.391837 
L 560.659756 308.921464 
L 578.77664 321.032831 
L 596.893523 364.755704 
L 615.010406 355.503183 
L 633.127289 373.843725 
L 651.244172 374.269796 
L 669.361055 378.565915 
L 687.477938 386.133456 
L 705.594821 396.964138 
L 723.711705 404.986907 
" clip-path="url(#p0c6a3474b2)" style="fill: none; stroke: #0000ff; stroke-width: 1.5; stroke-linecap: square"/>
   </g>
   <g id="line2d_48">
    <path d="M 89.620795 450.429688 
L 107.737679 450.429688 
L 125.854562 450.429688 
L 143.971445 450.429688 
L 162.088328 450.429688 
L 180.205211 450.429688 
L 198.322094 77.462278 
L 216.438977 273.760914 
L 234.55586 284.666394 
L 252.672744 334.681181 
L 270.789627 362.095301 
L 288.90651 304.485918 
L 307.023393 343.86757 
L 325.140276 266.729321 
L 343.257159 275.601214 
L 361.374042 48.324199 
L 379.490925 232.590315 
L 397.607808 270.926656 
L 415.724692 294.517082 
L 433.841575 205.669825 
L 451.958458 266.793062 
L 470.075341 332.879648 
L 488.192224 304.623731 
L 506.309107 319.945462 
L 524.42599 320.324777 
L 542.542873 343.357704 
L 560.659756 375.335578 
L 578.77664 369.933124 
L 596.893523 395.849091 
L 615.010406 418.461052 
L 633.127289 417.520798 
L 651.244172 418.911315 
L 669.361055 396.506688 
L 687.477938 364.360285 
L 705.594821 437.714889 
L 723.711705 435.510991 
" clip-path="url(#p0c6a3474b2)" style="fill: none; stroke: #ffa500; stroke-width: 1.5; stroke-linecap: square"/>
   </g>
   <g id="line2d_49">
    <path d="M 89.620795 450.429688 
L 107.737679 450.429688 
L 125.854562 450.429688 
L 143.971445 450.429688 
L 162.088328 450.429688 
L 180.205211 450.429688 
L 198.322094 450.429688 
L 216.438977 290.586512 
L 234.55586 280.469855 
L 252.672744 284.666394 
L 270.789627 322.147903 
L 288.90651 229.25134 
L 307.023393 268.986083 
L 325.140276 225.495734 
L 343.257159 256.680384 
L 361.374042 150.468664 
L 379.490925 211.80125 
L 397.607808 226.649242 
L 415.724692 194.295442 
L 433.841575 167.80842 
L 451.958458 245.225611 
L 470.075341 265.589011 
L 488.192224 247.563302 
L 506.309107 257.602999 
L 524.42599 287.539242 
L 542.542873 310.872954 
L 560.659756 326.746408 
L 578.77664 354.119116 
L 596.893523 348.711303 
L 615.010406 355.874569 
L 633.127289 420.052251 
L 651.244172 420.420815 
L 669.361055 384.12437 
L 687.477938 397.359226 
L 705.594821 433.215807 
L 723.711705 400.577608 
" clip-path="url(#p0c6a3474b2)" style="fill: none; stroke: #008000; stroke-width: 1.5; stroke-linecap: square"/>
   </g>
   <g id="line2d_50">
    <path d="M 89.620795 450.429688 
L 107.737679 450.429688 
L 125.854562 450.429688 
L 143.971445 450.429688 
L 162.088328 450.429688 
L 180.205211 450.429688 
L 198.322094 450.429688 
L 216.438977 450.429688 
L 234.55586 450.429688 
L 252.672744 450.429688 
L 270.789627 450.429688 
L 288.90651 450.429688 
L 307.023393 450.429688 
L 325.140276 450.429688 
L 343.257159 450.429688 
L 361.374042 450.429688 
L 379.490925 450.429688 
L 397.607808 450.429688 
L 415.724692 450.429688 
L 433.841575 450.429688 
L 451.958458 450.429688 
L 470.075341 450.429688 
L 488.192224 450.429688 
L 506.309107 450.429688 
L 524.42599 263.945983 
L 542.542873 384.611909 
L 560.659756 400.079087 
L 578.77664 323.761511 
L 596.893523 420.671649 
L 615.010406 384.611909 
L 633.127289 382.958196 
L 651.244172 414.101693 
L 669.361055 408.365694 
L 687.477938 410.611103 
L 705.594821 403.237893 
L 723.711705 394.03599 
" clip-path="url(#p0c6a3474b2)" style="fill: none; stroke: #808080; stroke-width: 1.5; stroke-linecap: square"/>
   </g>
   <g id="LineCollection_1">
    <path d="M 89.620795 450.429688 
L 89.620795 42.729688 
" clip-path="url(#p0c6a3474b2)" style="fill: none; stroke-dasharray: 5.55,2.4; stroke-dashoffset: 0; stroke: #808080; stroke-width: 1.5"/>
   </g>
   <g id="LineCollection_2">
    <path d="M 216.438977 450.429688 
L 216.438977 42.729688 
" clip-path="url(#p0c6a3474b2)" style="fill: none; stroke-dasharray: 5.55,2.4; stroke-dashoffset: 0; stroke: #808080; stroke-width: 1.5"/>
   </g>
   <g id="LineCollection_3">
    <path d="M 288.90651 450.429688 
L 288.90651 42.729688 
" clip-path="url(#p0c6a3474b2)" style="fill: none; stroke-dasharray: 5.55,2.4; stroke-dashoffset: 0; stroke: #808080; stroke-width: 1.5"/>
   </g>
   <g id="LineCollection_4">
    <path d="M 397.607808 450.429688 
L 397.607808 42.729688 
" clip-path="url(#p0c6a3474b2)" style="fill: none; stroke-dasharray: 5.55,2.4; stroke-dashoffset: 0; stroke: #808080; stroke-width: 1.5"/>
   </g>
   <g id="LineCollection_5">
    <path d="M 488.192224 450.429688 
L 488.192224 42.729688 
" clip-path="url(#p0c6a3474b2)" style="fill: none; stroke-dasharray: 5.55,2.4; stroke-dashoffset: 0; stroke: #808080; stroke-width: 1.5"/>
   </g>
   <g id="LineCollection_6">
    <path d="M 651.244172 450.429688 
L 651.244172 42.729688 
" clip-path="url(#p0c6a3474b2)" style="fill: none; stroke-dasharray: 5.55,2.4; stroke-dashoffset: 0; stroke: #808080; stroke-width: 1.5"/>
   </g>
   <g id="patch_3">
    <path d="M 57.91625 450.429688 
L 57.91625 42.729688 
" style="fill: none; stroke: #000000; stroke-width: 0.8; stroke-linejoin: miter; stroke-linecap: square"/>
   </g>
   <g id="patch_4">
    <path d="M 755.41625 450.429688 
L 755.41625 42.729688 
" style="fill: none; stroke: #000000; stroke-width: 0.8; stroke-linejoin: miter; stroke-linecap: square"/>
   </g>
   <g id="patch_5">
    <path d="M 57.91625 450.429688 
L 755.41625 450.429688 
" style="fill: none; stroke: #000000; stroke-width: 0.8; stroke-linejoin: miter; stroke-linecap: square"/>
   </g>
   <g id="patch_6">
    <path d="M 57.91625 42.729688 
L 755.41625 42.729688 
" style="fill: none; stroke: #000000; stroke-width: 0.8; stroke-linejoin: miter; stroke-linecap: square"/>
   </g>
   <g id="text_47">
    <g id="patch_7">
     <path d="M 764.56625 178.667687 
L 1012.07375 178.667687 
L 1012.07375 46.083687 
L 764.56625 46.083687 
z
" style="fill: #ffffff; opacity: 0.5; stroke: #808080; stroke-linejoin: miter"/>
    </g>
    <!-- n matching games (of total): -->
    <g transform="translate(769.36625 63.041188)scale(0.16 -0.16)">
     <defs>
      <path id="DejaVuSans-68" d="M 3513 2113 
L 3513 0 
L 2938 0 
L 2938 2094 
Q 2938 2591 2744 2837 
Q 2550 3084 2163 3084 
Q 1697 3084 1428 2787 
Q 1159 2491 1159 1978 
L 1159 0 
L 581 0 
L 581 4863 
L 1159 4863 
L 1159 2956 
Q 1366 3272 1645 3428 
Q 1925 3584 2291 3584 
Q 2894 3584 3203 3211 
Q 3513 2838 3513 2113 
z
" transform="scale(0.015625)"/>
      <path id="DejaVuSans-28" d="M 1984 4856 
Q 1566 4138 1362 3434 
Q 1159 2731 1159 2009 
Q 1159 1288 1364 580 
Q 1569 -128 1984 -844 
L 1484 -844 
Q 1016 -109 783 600 
Q 550 1309 550 2009 
Q 550 2706 781 3412 
Q 1013 4119 1484 4856 
L 1984 4856 
z
" transform="scale(0.015625)"/>
      <path id="DejaVuSans-29" d="M 513 4856 
L 1013 4856 
Q 1481 4119 1714 3412 
Q 1947 2706 1947 2009 
Q 1947 1309 1714 600 
Q 1481 -109 1013 -844 
L 513 -844 
Q 928 -128 1133 580 
Q 1338 1288 1338 2009 
Q 1338 2731 1133 3434 
Q 928 4138 513 4856 
z
" transform="scale(0.015625)"/>
      <path id="DejaVuSans-3a" d="M 750 794 
L 1409 794 
L 1409 0 
L 750 0 
L 750 794 
z
M 750 3309 
L 1409 3309 
L 1409 2516 
L 750 2516 
L 750 3309 
z
" transform="scale(0.015625)"/>
     </defs>
     <use xlink:href="#DejaVuSans-6e"/>
     <use xlink:href="#DejaVuSans-20" x="63.378906"/>
     <use xlink:href="#DejaVuSans-6d" x="95.166016"/>
     <use xlink:href="#DejaVuSans-61" x="192.578125"/>
     <use xlink:href="#DejaVuSans-74" x="253.857422"/>
     <use xlink:href="#DejaVuSans-63" x="293.066406"/>
     <use xlink:href="#DejaVuSans-68" x="348.046875"/>
     <use xlink:href="#DejaVuSans-69" x="411.425781"/>
     <use xlink:href="#DejaVuSans-6e" x="439.208984"/>
     <use xlink:href="#DejaVuSans-67" x="502.587891"/>
     <use xlink:href="#DejaVuSans-20" x="566.064453"/>
     <use xlink:href="#DejaVuSans-67" x="597.851562"/>
     <use xlink:href="#DejaVuSans-61" x="661.328125"/>
     <use xlink:href="#DejaVuSans-6d" x="722.607422"/>
     <use xlink:href="#DejaVuSans-65" x="820.019531"/>
     <use xlink:href="#DejaVuSans-73" x="881.542969"/>
     <use xlink:href="#DejaVuSans-20" x="933.642578"/>
     <use xlink:href="#DejaVuSans-28" x="965.429688"/>
     <use xlink:href="#DejaVuSans-6f" x="1004.443359"/>
     <use xlink:href="#DejaVuSans-66" x="1065.625"/>
     <use xlink:href="#DejaVuSans-20" x="1100.830078"/>
     <use xlink:href="#DejaVuSans-74" x="1132.617188"/>
     <use xlink:href="#DejaVuSans-6f" x="1171.826172"/>
     <use xlink:href="#DejaVuSans-74" x="1233.007812"/>
     <use xlink:href="#DejaVuSans-61" x="1272.216797"/>
     <use xlink:href="#DejaVuSans-6c" x="1333.496094"/>
     <use xlink:href="#DejaVuSans-29" x="1361.279297"/>
     <use xlink:href="#DejaVuSans-3a" x="1400.292969"/>
    </g>
    <!-- Japan: 1130 (13077) -->
    <g transform="translate(769.36625 80.957688)scale(0.16 -0.16)">
     <defs>
      <path id="DejaVuSans-4a" d="M 628 4666 
L 1259 4666 
L 1259 325 
Q 1259 -519 939 -900 
Q 619 -1281 -91 -1281 
L -331 -1281 
L -331 -750 
L -134 -750 
Q 284 -750 456 -515 
Q 628 -281 628 325 
L 628 4666 
z
" transform="scale(0.015625)"/>
     </defs>
     <use xlink:href="#DejaVuSans-4a"/>
     <use xlink:href="#DejaVuSans-61" x="29.492188"/>
     <use xlink:href="#DejaVuSans-70" x="90.771484"/>
     <use xlink:href="#DejaVuSans-61" x="154.248047"/>
     <use xlink:href="#DejaVuSans-6e" x="215.527344"/>
     <use xlink:href="#DejaVuSans-3a" x="278.90625"/>
     <use xlink:href="#DejaVuSans-20" x="312.597656"/>
     <use xlink:href="#DejaVuSans-31" x="344.384766"/>
     <use xlink:href="#DejaVuSans-31" x="408.007812"/>
     <use xlink:href="#DejaVuSans-33" x="471.630859"/>
     <use xlink:href="#DejaVuSans-30" x="535.253906"/>
     <use xlink:href="#DejaVuSans-20" x="598.876953"/>
     <use xlink:href="#DejaVuSans-28" x="630.664062"/>
     <use xlink:href="#DejaVuSans-31" x="669.677734"/>
     <use xlink:href="#DejaVuSans-33" x="733.300781"/>
     <use xlink:href="#DejaVuSans-30" x="796.923828"/>
     <use xlink:href="#DejaVuSans-37" x="860.546875"/>
     <use xlink:href="#DejaVuSans-37" x="924.169922"/>
     <use xlink:href="#DejaVuSans-29" x="987.792969"/>
    </g>
    <!-- Germany: 705 (4994) -->
    <g transform="translate(769.36625 98.874188)scale(0.16 -0.16)">
     <defs>
      <path id="DejaVuSans-47" d="M 3809 666 
L 3809 1919 
L 2778 1919 
L 2778 2438 
L 4434 2438 
L 4434 434 
Q 4069 175 3628 42 
Q 3188 -91 2688 -91 
Q 1594 -91 976 548 
Q 359 1188 359 2328 
Q 359 3472 976 4111 
Q 1594 4750 2688 4750 
Q 3144 4750 3555 4637 
Q 3966 4525 4313 4306 
L 4313 3634 
Q 3963 3931 3569 4081 
Q 3175 4231 2741 4231 
Q 1884 4231 1454 3753 
Q 1025 3275 1025 2328 
Q 1025 1384 1454 906 
Q 1884 428 2741 428 
Q 3075 428 3337 486 
Q 3600 544 3809 666 
z
" transform="scale(0.015625)"/>
     </defs>
     <use xlink:href="#DejaVuSans-47"/>
     <use xlink:href="#DejaVuSans-65" x="77.490234"/>
     <use xlink:href="#DejaVuSans-72" x="139.013672"/>
     <use xlink:href="#DejaVuSans-6d" x="178.376953"/>
     <use xlink:href="#DejaVuSans-61" x="275.789062"/>
     <use xlink:href="#DejaVuSans-6e" x="337.068359"/>
     <use xlink:href="#DejaVuSans-79" x="400.447266"/>
     <use xlink:href="#DejaVuSans-3a" x="452.376953"/>
     <use xlink:href="#DejaVuSans-20" x="486.068359"/>
     <use xlink:href="#DejaVuSans-37" x="517.855469"/>
     <use xlink:href="#DejaVuSans-30" x="581.478516"/>
     <use xlink:href="#DejaVuSans-35" x="645.101562"/>
     <use xlink:href="#DejaVuSans-20" x="708.724609"/>
     <use xlink:href="#DejaVuSans-28" x="740.511719"/>
     <use xlink:href="#DejaVuSans-34" x="779.525391"/>
     <use xlink:href="#DejaVuSans-39" x="843.148438"/>
     <use xlink:href="#DejaVuSans-39" x="906.771484"/>
     <use xlink:href="#DejaVuSans-34" x="970.394531"/>
     <use xlink:href="#DejaVuSans-29" x="1034.017578"/>
    </g>
    <!-- United States: 3303 (25070) -->
    <g transform="translate(769.36625 116.790687)scale(0.16 -0.16)">
     <defs>
      <path id="DejaVuSans-55" d="M 556 4666 
L 1191 4666 
L 1191 1831 
Q 1191 1081 1462 751 
Q 1734 422 2344 422 
Q 2950 422 3222 751 
Q 3494 1081 3494 1831 
L 3494 4666 
L 4128 4666 
L 4128 1753 
Q 4128 841 3676 375 
Q 3225 -91 2344 -91 
Q 1459 -91 1007 375 
Q 556 841 556 1753 
L 556 4666 
z
" transform="scale(0.015625)"/>
      <path id="DejaVuSans-53" d="M 3425 4513 
L 3425 3897 
Q 3066 4069 2747 4153 
Q 2428 4238 2131 4238 
Q 1616 4238 1336 4038 
Q 1056 3838 1056 3469 
Q 1056 3159 1242 3001 
Q 1428 2844 1947 2747 
L 2328 2669 
Q 3034 2534 3370 2195 
Q 3706 1856 3706 1288 
Q 3706 609 3251 259 
Q 2797 -91 1919 -91 
Q 1588 -91 1214 -16 
Q 841 59 441 206 
L 441 856 
Q 825 641 1194 531 
Q 1563 422 1919 422 
Q 2459 422 2753 634 
Q 3047 847 3047 1241 
Q 3047 1584 2836 1778 
Q 2625 1972 2144 2069 
L 1759 2144 
Q 1053 2284 737 2584 
Q 422 2884 422 3419 
Q 422 4038 858 4394 
Q 1294 4750 2059 4750 
Q 2388 4750 2728 4690 
Q 3069 4631 3425 4513 
z
" transform="scale(0.015625)"/>
     </defs>
     <use xlink:href="#DejaVuSans-55"/>
     <use xlink:href="#DejaVuSans-6e" x="73.193359"/>
     <use xlink:href="#DejaVuSans-69" x="136.572266"/>
     <use xlink:href="#DejaVuSans-74" x="164.355469"/>
     <use xlink:href="#DejaVuSans-65" x="203.564453"/>
     <use xlink:href="#DejaVuSans-64" x="265.087891"/>
     <use xlink:href="#DejaVuSans-20" x="328.564453"/>
     <use xlink:href="#DejaVuSans-53" x="360.351562"/>
     <use xlink:href="#DejaVuSans-74" x="423.828125"/>
     <use xlink:href="#DejaVuSans-61" x="463.037109"/>
     <use xlink:href="#DejaVuSans-74" x="524.316406"/>
     <use xlink:href="#DejaVuSans-65" x="563.525391"/>
     <use xlink:href="#DejaVuSans-73" x="625.048828"/>
     <use xlink:href="#DejaVuSans-3a" x="677.148438"/>
     <use xlink:href="#DejaVuSans-20" x="710.839844"/>
     <use xlink:href="#DejaVuSans-33" x="742.626953"/>
     <use xlink:href="#DejaVuSans-33" x="806.25"/>
     <use xlink:href="#DejaVuSans-30" x="869.873047"/>
     <use xlink:href="#DejaVuSans-33" x="933.496094"/>
     <use xlink:href="#DejaVuSans-20" x="997.119141"/>
     <use xlink:href="#DejaVuSans-28" x="1028.90625"/>
     <use xlink:href="#DejaVuSans-32" x="1067.919922"/>
     <use xlink:href="#DejaVuSans-35" x="1131.542969"/>
     <use xlink:href="#DejaVuSans-30" x="1195.166016"/>
     <use xlink:href="#DejaVuSans-37" x="1258.789062"/>
     <use xlink:href="#DejaVuSans-30" x="1322.412109"/>
     <use xlink:href="#DejaVuSans-29" x="1386.035156"/>
    </g>
    <!-- France: 461 (3771) -->
    <g transform="translate(769.36625 134.707188)scale(0.16 -0.16)">
     <defs>
      <path id="DejaVuSans-46" d="M 628 4666 
L 3309 4666 
L 3309 4134 
L 1259 4134 
L 1259 2759 
L 3109 2759 
L 3109 2228 
L 1259 2228 
L 1259 0 
L 628 0 
L 628 4666 
z
" transform="scale(0.015625)"/>
     </defs>
     <use xlink:href="#DejaVuSans-46"/>
     <use xlink:href="#DejaVuSans-72" x="50.269531"/>
     <use xlink:href="#DejaVuSans-61" x="91.382812"/>
     <use xlink:href="#DejaVuSans-6e" x="152.662109"/>
     <use xlink:href="#DejaVuSans-63" x="216.041016"/>
     <use xlink:href="#DejaVuSans-65" x="271.021484"/>
     <use xlink:href="#DejaVuSans-3a" x="332.544922"/>
     <use xlink:href="#DejaVuSans-20" x="366.236328"/>
     <use xlink:href="#DejaVuSans-34" x="398.023438"/>
     <use xlink:href="#DejaVuSans-36" x="461.646484"/>
     <use xlink:href="#DejaVuSans-31" x="525.269531"/>
     <use xlink:href="#DejaVuSans-20" x="588.892578"/>
     <use xlink:href="#DejaVuSans-28" x="620.679688"/>
     <use xlink:href="#DejaVuSans-33" x="659.693359"/>
     <use xlink:href="#DejaVuSans-37" x="723.316406"/>
     <use xlink:href="#DejaVuSans-37" x="786.939453"/>
     <use xlink:href="#DejaVuSans-31" x="850.5625"/>
     <use xlink:href="#DejaVuSans-29" x="914.185547"/>
    </g>
    <!-- United Kingdom: 1225 (8675) -->
    <g transform="translate(769.36625 152.623688)scale(0.16 -0.16)">
     <defs>
      <path id="DejaVuSans-4b" d="M 628 4666 
L 1259 4666 
L 1259 2694 
L 3353 4666 
L 4166 4666 
L 1850 2491 
L 4331 0 
L 3500 0 
L 1259 2247 
L 1259 0 
L 628 0 
L 628 4666 
z
" transform="scale(0.015625)"/>
     </defs>
     <use xlink:href="#DejaVuSans-55"/>
     <use xlink:href="#DejaVuSans-6e" x="73.193359"/>
     <use xlink:href="#DejaVuSans-69" x="136.572266"/>
     <use xlink:href="#DejaVuSans-74" x="164.355469"/>
     <use xlink:href="#DejaVuSans-65" x="203.564453"/>
     <use xlink:href="#DejaVuSans-64" x="265.087891"/>
     <use xlink:href="#DejaVuSans-20" x="328.564453"/>
     <use xlink:href="#DejaVuSans-4b" x="360.351562"/>
     <use xlink:href="#DejaVuSans-69" x="425.927734"/>
     <use xlink:href="#DejaVuSans-6e" x="453.710938"/>
     <use xlink:href="#DejaVuSans-67" x="517.089844"/>
     <use xlink:href="#DejaVuSans-64" x="580.566406"/>
     <use xlink:href="#DejaVuSans-6f" x="644.042969"/>
     <use xlink:href="#DejaVuSans-6d" x="705.224609"/>
     <use xlink:href="#DejaVuSans-3a" x="802.636719"/>
     <use xlink:href="#DejaVuSans-20" x="836.328125"/>
     <use xlink:href="#DejaVuSans-31" x="868.115234"/>
     <use xlink:href="#DejaVuSans-32" x="931.738281"/>
     <use xlink:href="#DejaVuSans-32" x="995.361328"/>
     <use xlink:href="#DejaVuSans-35" x="1058.984375"/>
     <use xlink:href="#DejaVuSans-20" x="1122.607422"/>
     <use xlink:href="#DejaVuSans-28" x="1154.394531"/>
     <use xlink:href="#DejaVuSans-38" x="1193.408203"/>
     <use xlink:href="#DejaVuSans-36" x="1257.03125"/>
     <use xlink:href="#DejaVuSans-37" x="1320.654297"/>
     <use xlink:href="#DejaVuSans-35" x="1384.277344"/>
     <use xlink:href="#DejaVuSans-29" x="1447.900391"/>
    </g>
    <!-- Worldwide: 215 (4226) -->
    <g transform="translate(769.36625 170.540188)scale(0.16 -0.16)">
     <defs>
      <path id="DejaVuSans-57" d="M 213 4666 
L 850 4666 
L 1831 722 
L 2809 4666 
L 3519 4666 
L 4500 722 
L 5478 4666 
L 6119 4666 
L 4947 0 
L 4153 0 
L 3169 4050 
L 2175 0 
L 1381 0 
L 213 4666 
z
" transform="scale(0.015625)"/>
      <path id="DejaVuSans-77" d="M 269 3500 
L 844 3500 
L 1563 769 
L 2278 3500 
L 2956 3500 
L 3675 769 
L 4391 3500 
L 4966 3500 
L 4050 0 
L 3372 0 
L 2619 2869 
L 1863 0 
L 1184 0 
L 269 3500 
z
" transform="scale(0.015625)"/>
     </defs>
     <use xlink:href="#DejaVuSans-57"/>
     <use xlink:href="#DejaVuSans-6f" x="93.001953"/>
     <use xlink:href="#DejaVuSans-72" x="154.183594"/>
     <use xlink:href="#DejaVuSans-6c" x="195.296875"/>
     <use xlink:href="#DejaVuSans-64" x="223.080078"/>
     <use xlink:href="#DejaVuSans-77" x="286.556641"/>
     <use xlink:href="#DejaVuSans-69" x="368.34375"/>
     <use xlink:href="#DejaVuSans-64" x="396.126953"/>
     <use xlink:href="#DejaVuSans-65" x="459.603516"/>
     <use xlink:href="#DejaVuSans-3a" x="521.126953"/>
     <use xlink:href="#DejaVuSans-20" x="554.818359"/>
     <use xlink:href="#DejaVuSans-32" x="586.605469"/>
     <use xlink:href="#DejaVuSans-31" x="650.228516"/>
     <use xlink:href="#DejaVuSans-35" x="713.851562"/>
     <use xlink:href="#DejaVuSans-20" x="777.474609"/>
     <use xlink:href="#DejaVuSans-28" x="809.261719"/>
     <use xlink:href="#DejaVuSans-34" x="848.275391"/>
     <use xlink:href="#DejaVuSans-32" x="911.898438"/>
     <use xlink:href="#DejaVuSans-32" x="975.521484"/>
     <use xlink:href="#DejaVuSans-36" x="1039.144531"/>
     <use xlink:href="#DejaVuSans-29" x="1102.767578"/>
    </g>
   </g>
   <g id="text_48">
    <!-- 1. gen. -->
    <g transform="translate(92.620795 241.930541)scale(0.16 -0.16)">
     <defs>
      <path id="DejaVuSans-2e" d="M 684 794 
L 1344 794 
L 1344 0 
L 684 0 
L 684 794 
z
" transform="scale(0.015625)"/>
     </defs>
     <use xlink:href="#DejaVuSans-31"/>
     <use xlink:href="#DejaVuSans-2e" x="63.623047"/>
     <use xlink:href="#DejaVuSans-20" x="95.410156"/>
     <use xlink:href="#DejaVuSans-67" x="127.197266"/>
     <use xlink:href="#DejaVuSans-65" x="190.673828"/>
     <use xlink:href="#DejaVuSans-6e" x="252.197266"/>
     <use xlink:href="#DejaVuSans-2e" x="315.576172"/>
    </g>
   </g>
   <g id="text_49">
    <!-- 2. gen. -->
    <g transform="translate(219.438977 241.930541)scale(0.16 -0.16)">
     <use xlink:href="#DejaVuSans-32"/>
     <use xlink:href="#DejaVuSans-2e" x="63.623047"/>
     <use xlink:href="#DejaVuSans-20" x="95.410156"/>
     <use xlink:href="#DejaVuSans-67" x="127.197266"/>
     <use xlink:href="#DejaVuSans-65" x="190.673828"/>
     <use xlink:href="#DejaVuSans-6e" x="252.197266"/>
     <use xlink:href="#DejaVuSans-2e" x="315.576172"/>
    </g>
   </g>
   <g id="text_50">
    <!-- 3. gen. -->
    <g transform="translate(291.90651 241.930541)scale(0.16 -0.16)">
     <use xlink:href="#DejaVuSans-33"/>
     <use xlink:href="#DejaVuSans-2e" x="63.623047"/>
     <use xlink:href="#DejaVuSans-20" x="95.410156"/>
     <use xlink:href="#DejaVuSans-67" x="127.197266"/>
     <use xlink:href="#DejaVuSans-65" x="190.673828"/>
     <use xlink:href="#DejaVuSans-6e" x="252.197266"/>
     <use xlink:href="#DejaVuSans-2e" x="315.576172"/>
    </g>
   </g>
   <g id="text_51">
    <!-- 4. gen. -->
    <g transform="translate(400.607808 241.930541)scale(0.16 -0.16)">
     <use xlink:href="#DejaVuSans-34"/>
     <use xlink:href="#DejaVuSans-2e" x="63.623047"/>
     <use xlink:href="#DejaVuSans-20" x="95.410156"/>
     <use xlink:href="#DejaVuSans-67" x="127.197266"/>
     <use xlink:href="#DejaVuSans-65" x="190.673828"/>
     <use xlink:href="#DejaVuSans-6e" x="252.197266"/>
     <use xlink:href="#DejaVuSans-2e" x="315.576172"/>
    </g>
   </g>
   <g id="text_52">
    <!-- 5. gen. -->
    <g transform="translate(491.192224 241.930541)scale(0.16 -0.16)">
     <use xlink:href="#DejaVuSans-35"/>
     <use xlink:href="#DejaVuSans-2e" x="63.623047"/>
     <use xlink:href="#DejaVuSans-20" x="95.410156"/>
     <use xlink:href="#DejaVuSans-67" x="127.197266"/>
     <use xlink:href="#DejaVuSans-65" x="190.673828"/>
     <use xlink:href="#DejaVuSans-6e" x="252.197266"/>
     <use xlink:href="#DejaVuSans-2e" x="315.576172"/>
    </g>
   </g>
   <g id="text_53">
    <!-- 6. gen. -->
    <g transform="translate(654.244172 241.930541)scale(0.16 -0.16)">
     <use xlink:href="#DejaVuSans-36"/>
     <use xlink:href="#DejaVuSans-2e" x="63.623047"/>
     <use xlink:href="#DejaVuSans-20" x="95.410156"/>
     <use xlink:href="#DejaVuSans-67" x="127.197266"/>
     <use xlink:href="#DejaVuSans-65" x="190.673828"/>
     <use xlink:href="#DejaVuSans-6e" x="252.197266"/>
     <use xlink:href="#DejaVuSans-2e" x="315.576172"/>
    </g>
   </g>
   <g id="legend_1">
    <g id="patch_8">
     <path d="M 766.61625 442.429688 
L 946.23875 442.429688 
Q 949.43875 442.429688 949.43875 439.229687 
L 949.43875 299.919687 
Q 949.43875 296.719687 946.23875 296.719687 
L 766.61625 296.719687 
Q 763.41625 296.719687 763.41625 299.919687 
L 763.41625 439.229687 
Q 763.41625 442.429688 766.61625 442.429688 
z
" style="fill: #ffffff; opacity: 0.8; stroke: #808080; stroke-linejoin: miter"/>
    </g>
    <g id="line2d_51">
     <path d="M 769.81625 309.677187 
L 785.81625 309.677187 
L 801.81625 309.677187 
" style="fill: none; stroke: #ff0000; stroke-width: 1.5; stroke-linecap: square"/>
    </g>
    <g id="text_54">
     <!-- Japan -->
     <g transform="translate(814.61625 315.277187)scale(0.16 -0.16)">
      <use xlink:href="#DejaVuSans-4a"/>
      <use xlink:href="#DejaVuSans-61" x="29.492188"/>
      <use xlink:href="#DejaVuSans-70" x="90.771484"/>
      <use xlink:href="#DejaVuSans-61" x="154.248047"/>
      <use xlink:href="#DejaVuSans-6e" x="215.527344"/>
     </g>
    </g>
    <g id="line2d_52">
     <path d="M 769.81625 333.162187 
L 785.81625 333.162187 
L 801.81625 333.162187 
" style="fill: none; stroke: #000000; stroke-width: 1.5; stroke-linecap: square"/>
    </g>
    <g id="text_55">
     <!-- Germany -->
     <g transform="translate(814.61625 338.762187)scale(0.16 -0.16)">
      <use xlink:href="#DejaVuSans-47"/>
      <use xlink:href="#DejaVuSans-65" x="77.490234"/>
      <use xlink:href="#DejaVuSans-72" x="139.013672"/>
      <use xlink:href="#DejaVuSans-6d" x="178.376953"/>
      <use xlink:href="#DejaVuSans-61" x="275.789062"/>
      <use xlink:href="#DejaVuSans-6e" x="337.068359"/>
      <use xlink:href="#DejaVuSans-79" x="400.447266"/>
     </g>
    </g>
    <g id="line2d_53">
     <path d="M 769.81625 356.647187 
L 785.81625 356.647187 
L 801.81625 356.647187 
" style="fill: none; stroke: #0000ff; stroke-width: 1.5; stroke-linecap: square"/>
    </g>
    <g id="text_56">
     <!-- United States -->
     <g transform="translate(814.61625 362.247187)scale(0.16 -0.16)">
      <use xlink:href="#DejaVuSans-55"/>
      <use xlink:href="#DejaVuSans-6e" x="73.193359"/>
      <use xlink:href="#DejaVuSans-69" x="136.572266"/>
      <use xlink:href="#DejaVuSans-74" x="164.355469"/>
      <use xlink:href="#DejaVuSans-65" x="203.564453"/>
      <use xlink:href="#DejaVuSans-64" x="265.087891"/>
      <use xlink:href="#DejaVuSans-20" x="328.564453"/>
      <use xlink:href="#DejaVuSans-53" x="360.351562"/>
      <use xlink:href="#DejaVuSans-74" x="423.828125"/>
      <use xlink:href="#DejaVuSans-61" x="463.037109"/>
      <use xlink:href="#DejaVuSans-74" x="524.316406"/>
      <use xlink:href="#DejaVuSans-65" x="563.525391"/>
      <use xlink:href="#DejaVuSans-73" x="625.048828"/>
     </g>
    </g>
    <g id="line2d_54">
     <path d="M 769.81625 380.132187 
L 785.81625 380.132187 
L 801.81625 380.132187 
" style="fill: none; stroke: #ffa500; stroke-width: 1.5; stroke-linecap: square"/>
    </g>
    <g id="text_57">
     <!-- France -->
     <g transform="translate(814.61625 385.732187)scale(0.16 -0.16)">
      <use xlink:href="#DejaVuSans-46"/>
      <use xlink:href="#DejaVuSans-72" x="50.269531"/>
      <use xlink:href="#DejaVuSans-61" x="91.382812"/>
      <use xlink:href="#DejaVuSans-6e" x="152.662109"/>
      <use xlink:href="#DejaVuSans-63" x="216.041016"/>
      <use xlink:href="#DejaVuSans-65" x="271.021484"/>
     </g>
    </g>
    <g id="line2d_55">
     <path d="M 769.81625 403.617187 
L 785.81625 403.617187 
L 801.81625 403.617187 
" style="fill: none; stroke: #008000; stroke-width: 1.5; stroke-linecap: square"/>
    </g>
    <g id="text_58">
     <!-- United Kingdom -->
     <g transform="translate(814.61625 409.217187)scale(0.16 -0.16)">
      <use xlink:href="#DejaVuSans-55"/>
      <use xlink:href="#DejaVuSans-6e" x="73.193359"/>
      <use xlink:href="#DejaVuSans-69" x="136.572266"/>
      <use xlink:href="#DejaVuSans-74" x="164.355469"/>
      <use xlink:href="#DejaVuSans-65" x="203.564453"/>
      <use xlink:href="#DejaVuSans-64" x="265.087891"/>
      <use xlink:href="#DejaVuSans-20" x="328.564453"/>
      <use xlink:href="#DejaVuSans-4b" x="360.351562"/>
      <use xlink:href="#DejaVuSans-69" x="425.927734"/>
      <use xlink:href="#DejaVuSans-6e" x="453.710938"/>
      <use xlink:href="#DejaVuSans-67" x="517.089844"/>
      <use xlink:href="#DejaVuSans-64" x="580.566406"/>
      <use xlink:href="#DejaVuSans-6f" x="644.042969"/>
      <use xlink:href="#DejaVuSans-6d" x="705.224609"/>
     </g>
    </g>
    <g id="line2d_56">
     <path d="M 769.81625 427.102187 
L 785.81625 427.102187 
L 801.81625 427.102187 
" style="fill: none; stroke: #808080; stroke-width: 1.5; stroke-linecap: square"/>
    </g>
    <g id="text_59">
     <!-- Worldwide -->
     <g transform="translate(814.61625 432.702187)scale(0.16 -0.16)">
      <use xlink:href="#DejaVuSans-57"/>
      <use xlink:href="#DejaVuSans-6f" x="93.001953"/>
      <use xlink:href="#DejaVuSans-72" x="154.183594"/>
      <use xlink:href="#DejaVuSans-6c" x="195.296875"/>
      <use xlink:href="#DejaVuSans-64" x="223.080078"/>
      <use xlink:href="#DejaVuSans-77" x="286.556641"/>
      <use xlink:href="#DejaVuSans-69" x="368.34375"/>
      <use xlink:href="#DejaVuSans-64" x="396.126953"/>
      <use xlink:href="#DejaVuSans-65" x="459.603516"/>
     </g>
    </g>
   </g>
  </g>
 </g>
 <defs>
  <clipPath id="p0c6a3474b2">
   <rect x="57.91625" y="42.729688" width="697.5" height="407.7"/>
  </clipPath>
 </defs>
</svg>
