<?xml version="1.0" encoding="utf-8" standalone="no"?>
<!DOCTYPE svg PUBLIC "-//W3C//DTD SVG 1.1//EN"
  "http://www.w3.org/Graphics/SVG/1.1/DTD/svg11.dtd">
<svg xmlns:xlink="http://www.w3.org/1999/xlink" width="1009.33875pt" height="554.138397pt" viewBox="0 0 1009.33875 554.138397" xmlns="http://www.w3.org/2000/svg" version="1.1">
 <metadata>
  <rdf:RDF xmlns:dc="http://purl.org/dc/elements/1.1/" xmlns:cc="http://creativecommons.org/ns#" xmlns:rdf="http://www.w3.org/1999/02/22-rdf-syntax-ns#">
   <cc:Work>
    <dc:type rdf:resource="http://purl.org/dc/dcmitype/StillImage"/>
    <dc:date>2024-03-14T11:45:34.860667</dc:date>
    <dc:format>image/svg+xml</dc:format>
    <dc:creator>
     <cc:Agent>
      <dc:title>Matplotlib v3.5.1, https://matplotlib.org/</dc:title>
     </cc:Agent>
    </dc:creator>
   </cc:Work>
  </rdf:RDF>
 </metadata>
 <defs>
  <style type="text/css">*{stroke-linejoin: round; stroke-linecap: butt}</style>
 </defs>
 <g id="figure_1">
  <g id="patch_1">
   <path d="M 0 554.138397 
L 1009.33875 554.138397 
L 1009.33875 0 
L 0 0 
L 0 554.138397 
z
" style="fill: none"/>
  </g>
  <g id="axes_1">
   <g id="patch_2">
    <path d="M 63.00125 420.97875 
L 760.50125 420.97875 
L 760.50125 13.27875 
L 63.00125 13.27875 
z
" style="fill: #ffffff"/>
   </g>
   <g id="patch_3">
    <path d="M 94.705795 420.97875 
L 182.166611 420.97875 
L 182.166611 212.75455 
L 94.705795 212.75455 
z
" clip-path="url(#p5292be595d)" style="fill: #b2df8a"/>
   </g>
   <g id="patch_4">
    <path d="M 204.031814 420.97875 
L 291.492629 420.97875 
L 291.492629 211.064562 
L 204.031814 211.064562 
z
" clip-path="url(#p5292be595d)" style="fill: #b2df8a"/>
   </g>
   <g id="patch_5">
    <path d="M 313.357833 420.97875 
L 400.818648 420.97875 
L 400.818648 202.130847 
L 313.357833 202.130847 
z
" clip-path="url(#p5292be595d)" style="fill: #b2df8a"/>
   </g>
   <g id="patch_6">
    <path d="M 422.683852 420.97875 
L 510.144667 420.97875 
L 510.144667 207.646497 
L 422.683852 207.646497 
z
" clip-path="url(#p5292be595d)" style="fill: #b2df8a"/>
   </g>
   <g id="patch_7">
    <path d="M 532.009871 420.97875 
L 619.470686 420.97875 
L 619.470686 237.200135 
L 532.009871 237.200135 
z
" clip-path="url(#p5292be595d)" style="fill: #b2df8a"/>
   </g>
   <g id="patch_8">
    <path d="M 641.335889 420.97875 
L 728.796705 420.97875 
L 728.796705 193.79925 
L 641.335889 193.79925 
z
" clip-path="url(#p5292be595d)" style="fill: #b2df8a"/>
   </g>
   <g id="patch_9">
    <path d="M 94.705795 212.75455 
L 182.166611 212.75455 
L 182.166611 199.778015 
L 94.705795 199.778015 
z
" clip-path="url(#p5292be595d)" style="fill: #a6cee3"/>
   </g>
   <g id="patch_10">
    <path d="M 204.031814 211.064562 
L 291.492629 211.064562 
L 291.492629 199.824713 
L 204.031814 199.824713 
z
" clip-path="url(#p5292be595d)" style="fill: #a6cee3"/>
   </g>
   <g id="patch_11">
    <path d="M 313.357833 202.130847 
L 400.818648 202.130847 
L 400.818648 191.104352 
L 313.357833 191.104352 
z
" clip-path="url(#p5292be595d)" style="fill: #a6cee3"/>
   </g>
   <g id="patch_12">
    <path d="M 422.683852 207.646497 
L 510.144667 207.646497 
L 510.144667 197.020469 
L 422.683852 197.020469 
z
" clip-path="url(#p5292be595d)" style="fill: #a6cee3"/>
   </g>
   <g id="patch_13">
    <path d="M 532.009871 237.200135 
L 619.470686 237.200135 
L 619.470686 201.311626 
L 532.009871 201.311626 
z
" clip-path="url(#p5292be595d)" style="fill: #a6cee3"/>
   </g>
   <g id="patch_14">
    <path d="M 641.335889 193.79925 
L 728.796705 193.79925 
L 728.796705 160.164 
L 641.335889 160.164 
z
" clip-path="url(#p5292be595d)" style="fill: #a6cee3"/>
   </g>
   <g id="patch_15">
    <path d="M 94.705795 199.778015 
L 182.166611 199.778015 
L 182.166611 171.964563 
L 94.705795 171.964563 
z
" clip-path="url(#p5292be595d)" style="fill: #1f78b4"/>
   </g>
   <g id="patch_16">
    <path d="M 204.031814 199.824713 
L 291.492629 199.824713 
L 291.492629 174.190747 
L 204.031814 174.190747 
z
" clip-path="url(#p5292be595d)" style="fill: #1f78b4"/>
   </g>
   <g id="patch_17">
    <path d="M 313.357833 191.104352 
L 400.818648 191.104352 
L 400.818648 169.051361 
L 313.357833 169.051361 
z
" clip-path="url(#p5292be595d)" style="fill: #1f78b4"/>
   </g>
   <g id="patch_18">
    <path d="M 422.683852 197.020469 
L 510.144667 197.020469 
L 510.144667 173.702243 
L 422.683852 173.702243 
z
" clip-path="url(#p5292be595d)" style="fill: #1f78b4"/>
   </g>
   <g id="patch_19">
    <path d="M 532.009871 201.311626 
L 619.470686 201.311626 
L 619.470686 175.567894 
L 532.009871 175.567894 
z
" clip-path="url(#p5292be595d)" style="fill: #1f78b4"/>
   </g>
   <g id="patch_20">
    <path d="M 641.335889 160.164 
L 728.796705 160.164 
L 728.796705 143.51625 
L 641.335889 143.51625 
z
" clip-path="url(#p5292be595d)" style="fill: #1f78b4"/>
   </g>
   <g id="patch_21">
    <path d="M 94.705795 171.964563 
L 182.166611 171.964563 
L 182.166611 149.347875 
L 94.705795 149.347875 
z
" clip-path="url(#p5292be595d)" style="fill: #33a02c"/>
   </g>
   <g id="patch_22">
    <path d="M 204.031814 174.190747 
L 291.492629 174.190747 
L 291.492629 153.576952 
L 204.031814 153.576952 
z
" clip-path="url(#p5292be595d)" style="fill: #33a02c"/>
   </g>
   <g id="patch_23">
    <path d="M 313.357833 169.051361 
L 400.818648 169.051361 
L 400.818648 147.278704 
L 313.357833 147.278704 
z
" clip-path="url(#p5292be595d)" style="fill: #33a02c"/>
   </g>
   <g id="patch_24">
    <path d="M 422.683852 173.702243 
L 510.144667 173.702243 
L 510.144667 154.221193 
L 422.683852 154.221193 
z
" clip-path="url(#p5292be595d)" style="fill: #33a02c"/>
   </g>
   <g id="patch_25">
    <path d="M 532.009871 175.567894 
L 619.470686 175.567894 
L 619.470686 143.470041 
L 532.009871 143.470041 
z
" clip-path="url(#p5292be595d)" style="fill: #33a02c"/>
   </g>
   <g id="patch_26">
    <path d="M 641.335889 143.51625 
L 728.796705 143.51625 
L 728.796705 111.80625 
L 641.335889 111.80625 
z
" clip-path="url(#p5292be595d)" style="fill: #33a02c"/>
   </g>
   <g id="patch_27">
    <path d="M 94.705795 149.347875 
L 182.166611 149.347875 
L 182.166611 98.56411 
L 94.705795 98.56411 
z
" clip-path="url(#p5292be595d)" style="fill: #e31a1c"/>
   </g>
   <g id="patch_28">
    <path d="M 204.031814 153.576952 
L 291.492629 153.576952 
L 291.492629 99.154755 
L 204.031814 99.154755 
z
" clip-path="url(#p5292be595d)" style="fill: #e31a1c"/>
   </g>
   <g id="patch_29">
    <path d="M 313.357833 147.278704 
L 400.818648 147.278704 
L 400.818648 104.200616 
L 313.357833 104.200616 
z
" clip-path="url(#p5292be595d)" style="fill: #e31a1c"/>
   </g>
   <g id="patch_30">
    <path d="M 422.683852 154.221193 
L 510.144667 154.221193 
L 510.144667 102.197936 
L 422.683852 102.197936 
z
" clip-path="url(#p5292be595d)" style="fill: #e31a1c"/>
   </g>
   <g id="patch_31">
    <path d="M 532.009871 143.470041 
L 619.470686 143.470041 
L 619.470686 112.653921 
L 532.009871 112.653921 
z
" clip-path="url(#p5292be595d)" style="fill: #e31a1c"/>
   </g>
   <g id="patch_32">
    <path d="M 641.335889 111.80625 
L 728.796705 111.80625 
L 728.796705 87.4575 
L 641.335889 87.4575 
z
" clip-path="url(#p5292be595d)" style="fill: #e31a1c"/>
   </g>
   <g id="patch_33">
    <path d="M 94.705795 98.56411 
L 182.166611 98.56411 
L 182.166611 66.507147 
L 94.705795 66.507147 
z
" clip-path="url(#p5292be595d)" style="fill: #fb9a99"/>
   </g>
   <g id="patch_34">
    <path d="M 204.031814 99.154755 
L 291.492629 99.154755 
L 291.492629 55.039456 
L 204.031814 55.039456 
z
" clip-path="url(#p5292be595d)" style="fill: #fb9a99"/>
   </g>
   <g id="patch_35">
    <path d="M 313.357833 104.200616 
L 400.818648 104.200616 
L 400.818648 58.412626 
L 313.357833 58.412626 
z
" clip-path="url(#p5292be595d)" style="fill: #fb9a99"/>
   </g>
   <g id="patch_36">
    <path d="M 422.683852 102.197936 
L 510.144667 102.197936 
L 510.144667 55.413899 
L 422.683852 55.413899 
z
" clip-path="url(#p5292be595d)" style="fill: #fb9a99"/>
   </g>
   <g id="patch_37">
    <path d="M 532.009871 112.653921 
L 619.470686 112.653921 
L 619.470686 94.191519 
L 532.009871 94.191519 
z
" clip-path="url(#p5292be595d)" style="fill: #fb9a99"/>
   </g>
   <g id="patch_38">
    <path d="M 641.335889 87.4575 
L 728.796705 87.4575 
L 728.796705 65.82675 
L 641.335889 65.82675 
z
" clip-path="url(#p5292be595d)" style="fill: #fb9a99"/>
   </g>
   <g id="patch_39">
    <path d="M 94.705795 66.507147 
L 182.166611 66.507147 
L 182.166611 38.416944 
L 94.705795 38.416944 
z
" clip-path="url(#p5292be595d)" style="fill: #fdbf6f"/>
   </g>
   <g id="patch_40">
    <path d="M 204.031814 55.039456 
L 291.492629 55.039456 
L 291.492629 30.782706 
L 204.031814 30.782706 
z
" clip-path="url(#p5292be595d)" style="fill: #fdbf6f"/>
   </g>
   <g id="patch_41">
    <path d="M 313.357833 58.412626 
L 400.818648 58.412626 
L 400.818648 29.631604 
L 313.357833 29.631604 
z
" clip-path="url(#p5292be595d)" style="fill: #fdbf6f"/>
   </g>
   <g id="patch_42">
    <path d="M 422.683852 55.413899 
L 510.144667 55.413899 
L 510.144667 28.110913 
L 422.683852 28.110913 
z
" clip-path="url(#p5292be595d)" style="fill: #fdbf6f"/>
   </g>
   <g id="patch_43">
    <path d="M 532.009871 94.191519 
L 619.470686 94.191519 
L 619.470686 34.904576 
L 532.009871 34.904576 
z
" clip-path="url(#p5292be595d)" style="fill: #fdbf6f"/>
   </g>
   <g id="patch_44">
    <path d="M 641.335889 65.82675 
L 728.796705 65.82675 
L 728.796705 43.17675 
L 641.335889 43.17675 
z
" clip-path="url(#p5292be595d)" style="fill: #fdbf6f"/>
   </g>
   <g id="patch_45">
    <path d="M 94.705795 38.416944 
L 182.166611 38.416944 
L 182.166611 13.27875 
L 94.705795 13.27875 
z
" clip-path="url(#p5292be595d)" style="fill: #ff7f00"/>
   </g>
   <g id="patch_46">
    <path d="M 204.031814 30.782706 
L 291.492629 30.782706 
L 291.492629 13.27875 
L 204.031814 13.27875 
z
" clip-path="url(#p5292be595d)" style="fill: #ff7f00"/>
   </g>
   <g id="patch_47">
    <path d="M 313.357833 29.631604 
L 400.818648 29.631604 
L 400.818648 13.27875 
L 313.357833 13.27875 
z
" clip-path="url(#p5292be595d)" style="fill: #ff7f00"/>
   </g>
   <g id="patch_48">
    <path d="M 422.683852 28.110913 
L 510.144667 28.110913 
L 510.144667 13.27875 
L 422.683852 13.27875 
z
" clip-path="url(#p5292be595d)" style="fill: #ff7f00"/>
   </g>
   <g id="patch_49">
    <path d="M 532.009871 34.904576 
L 619.470686 34.904576 
L 619.470686 13.27875 
L 532.009871 13.27875 
z
" clip-path="url(#p5292be595d)" style="fill: #ff7f00"/>
   </g>
   <g id="patch_50">
    <path d="M 641.335889 43.17675 
L 728.796705 43.17675 
L 728.796705 13.27875 
L 641.335889 13.27875 
z
" clip-path="url(#p5292be595d)" style="fill: #ff7f00"/>
   </g>
   <g id="patch_51">
    <path d="M 94.705795 13.27875 
L 182.166611 13.27875 
L 182.166611 13.27875 
L 94.705795 13.27875 
z
" clip-path="url(#p5292be595d)"/>
   </g>
   <g id="patch_52">
    <path d="M 204.031814 13.27875 
L 291.492629 13.27875 
L 291.492629 13.27875 
L 204.031814 13.27875 
z
" clip-path="url(#p5292be595d)"/>
   </g>
   <g id="patch_53">
    <path d="M 313.357833 13.27875 
L 400.818648 13.27875 
L 400.818648 13.27875 
L 313.357833 13.27875 
z
" clip-path="url(#p5292be595d)"/>
   </g>
   <g id="patch_54">
    <path d="M 422.683852 13.27875 
L 510.144667 13.27875 
L 510.144667 13.27875 
L 422.683852 13.27875 
z
" clip-path="url(#p5292be595d)"/>
   </g>
   <g id="patch_55">
    <path d="M 532.009871 13.27875 
L 619.470686 13.27875 
L 619.470686 13.27875 
L 532.009871 13.27875 
z
" clip-path="url(#p5292be595d)"/>
   </g>
   <g id="patch_56">
    <path d="M 641.335889 13.27875 
L 728.796705 13.27875 
L 728.796705 13.27875 
L 641.335889 13.27875 
z
" clip-path="url(#p5292be595d)"/>
   </g>
   <g id="matplotlib.axis_1">
    <g id="xtick_1">
     <g id="line2d_1">
      <defs>
       <path id="m6b313d2c9e" d="M 0 0 
L 0 3.5 
" style="stroke: #000000; stroke-width: 0.8"/>
      </defs>
      <g>
       <use xlink:href="#m6b313d2c9e" x="138.436203" y="420.97875" style="stroke: #000000; stroke-width: 0.8"/>
      </g>
     </g>
     <g id="text_1">
      <!-- United States -->
      <g transform="translate(81.383253 527.884857)rotate(-60)scale(0.16 -0.16)">
       <defs>
        <path id="DejaVuSans-55" d="M 556 4666 
L 1191 4666 
L 1191 1831 
Q 1191 1081 1462 751 
Q 1734 422 2344 422 
Q 2950 422 3222 751 
Q 3494 1081 3494 1831 
L 3494 4666 
L 4128 4666 
L 4128 1753 
Q 4128 841 3676 375 
Q 3225 -91 2344 -91 
Q 1459 -91 1007 375 
Q 556 841 556 1753 
L 556 4666 
z
" transform="scale(0.015625)"/>
        <path id="DejaVuSans-6e" d="M 3513 2113 
L 3513 0 
L 2938 0 
L 2938 2094 
Q 2938 2591 2744 2837 
Q 2550 3084 2163 3084 
Q 1697 3084 1428 2787 
Q 1159 2491 1159 1978 
L 1159 0 
L 581 0 
L 581 3500 
L 1159 3500 
L 1159 2956 
Q 1366 3272 1645 3428 
Q 1925 3584 2291 3584 
Q 2894 3584 3203 3211 
Q 3513 2838 3513 2113 
z
" transform="scale(0.015625)"/>
        <path id="DejaVuSans-69" d="M 603 3500 
L 1178 3500 
L 1178 0 
L 603 0 
L 603 3500 
z
M 603 4863 
L 1178 4863 
L 1178 4134 
L 603 4134 
L 603 4863 
z
" transform="scale(0.015625)"/>
        <path id="DejaVuSans-74" d="M 1172 4494 
L 1172 3500 
L 2356 3500 
L 2356 3053 
L 1172 3053 
L 1172 1153 
Q 1172 725 1289 603 
Q 1406 481 1766 481 
L 2356 481 
L 2356 0 
L 1766 0 
Q 1100 0 847 248 
Q 594 497 594 1153 
L 594 3053 
L 172 3053 
L 172 3500 
L 594 3500 
L 594 4494 
L 1172 4494 
z
" transform="scale(0.015625)"/>
        <path id="DejaVuSans-65" d="M 3597 1894 
L 3597 1613 
L 953 1613 
Q 991 1019 1311 708 
Q 1631 397 2203 397 
Q 2534 397 2845 478 
Q 3156 559 3463 722 
L 3463 178 
Q 3153 47 2828 -22 
Q 2503 -91 2169 -91 
Q 1331 -91 842 396 
Q 353 884 353 1716 
Q 353 2575 817 3079 
Q 1281 3584 2069 3584 
Q 2775 3584 3186 3129 
Q 3597 2675 3597 1894 
z
M 3022 2063 
Q 3016 2534 2758 2815 
Q 2500 3097 2075 3097 
Q 1594 3097 1305 2825 
Q 1016 2553 972 2059 
L 3022 2063 
z
" transform="scale(0.015625)"/>
        <path id="DejaVuSans-64" d="M 2906 2969 
L 2906 4863 
L 3481 4863 
L 3481 0 
L 2906 0 
L 2906 525 
Q 2725 213 2448 61 
Q 2172 -91 1784 -91 
Q 1150 -91 751 415 
Q 353 922 353 1747 
Q 353 2572 751 3078 
Q 1150 3584 1784 3584 
Q 2172 3584 2448 3432 
Q 2725 3281 2906 2969 
z
M 947 1747 
Q 947 1113 1208 752 
Q 1469 391 1925 391 
Q 2381 391 2643 752 
Q 2906 1113 2906 1747 
Q 2906 2381 2643 2742 
Q 2381 3103 1925 3103 
Q 1469 3103 1208 2742 
Q 947 2381 947 1747 
z
" transform="scale(0.015625)"/>
        <path id="DejaVuSans-20" transform="scale(0.015625)"/>
        <path id="DejaVuSans-53" d="M 3425 4513 
L 3425 3897 
Q 3066 4069 2747 4153 
Q 2428 4238 2131 4238 
Q 1616 4238 1336 4038 
Q 1056 3838 1056 3469 
Q 1056 3159 1242 3001 
Q 1428 2844 1947 2747 
L 2328 2669 
Q 3034 2534 3370 2195 
Q 3706 1856 3706 1288 
Q 3706 609 3251 259 
Q 2797 -91 1919 -91 
Q 1588 -91 1214 -16 
Q 841 59 441 206 
L 441 856 
Q 825 641 1194 531 
Q 1563 422 1919 422 
Q 2459 422 2753 634 
Q 3047 847 3047 1241 
Q 3047 1584 2836 1778 
Q 2625 1972 2144 2069 
L 1759 2144 
Q 1053 2284 737 2584 
Q 422 2884 422 3419 
Q 422 4038 858 4394 
Q 1294 4750 2059 4750 
Q 2388 4750 2728 4690 
Q 3069 4631 3425 4513 
z
" transform="scale(0.015625)"/>
        <path id="DejaVuSans-61" d="M 2194 1759 
Q 1497 1759 1228 1600 
Q 959 1441 959 1056 
Q 959 750 1161 570 
Q 1363 391 1709 391 
Q 2188 391 2477 730 
Q 2766 1069 2766 1631 
L 2766 1759 
L 2194 1759 
z
M 3341 1997 
L 3341 0 
L 2766 0 
L 2766 531 
Q 2569 213 2275 61 
Q 1981 -91 1556 -91 
Q 1019 -91 701 211 
Q 384 513 384 1019 
Q 384 1609 779 1909 
Q 1175 2209 1959 2209 
L 2766 2209 
L 2766 2266 
Q 2766 2663 2505 2880 
Q 2244 3097 1772 3097 
Q 1472 3097 1187 3025 
Q 903 2953 641 2809 
L 641 3341 
Q 956 3463 1253 3523 
Q 1550 3584 1831 3584 
Q 2591 3584 2966 3190 
Q 3341 2797 3341 1997 
z
" transform="scale(0.015625)"/>
        <path id="DejaVuSans-73" d="M 2834 3397 
L 2834 2853 
Q 2591 2978 2328 3040 
Q 2066 3103 1784 3103 
Q 1356 3103 1142 2972 
Q 928 2841 928 2578 
Q 928 2378 1081 2264 
Q 1234 2150 1697 2047 
L 1894 2003 
Q 2506 1872 2764 1633 
Q 3022 1394 3022 966 
Q 3022 478 2636 193 
Q 2250 -91 1575 -91 
Q 1294 -91 989 -36 
Q 684 19 347 128 
L 347 722 
Q 666 556 975 473 
Q 1284 391 1588 391 
Q 1994 391 2212 530 
Q 2431 669 2431 922 
Q 2431 1156 2273 1281 
Q 2116 1406 1581 1522 
L 1381 1569 
Q 847 1681 609 1914 
Q 372 2147 372 2553 
Q 372 3047 722 3315 
Q 1072 3584 1716 3584 
Q 2034 3584 2315 3537 
Q 2597 3491 2834 3397 
z
" transform="scale(0.015625)"/>
       </defs>
       <use xlink:href="#DejaVuSans-55"/>
       <use xlink:href="#DejaVuSans-6e" x="73.193359"/>
       <use xlink:href="#DejaVuSans-69" x="136.572266"/>
       <use xlink:href="#DejaVuSans-74" x="164.355469"/>
       <use xlink:href="#DejaVuSans-65" x="203.564453"/>
       <use xlink:href="#DejaVuSans-64" x="265.087891"/>
       <use xlink:href="#DejaVuSans-20" x="328.564453"/>
       <use xlink:href="#DejaVuSans-53" x="360.351562"/>
       <use xlink:href="#DejaVuSans-74" x="423.828125"/>
       <use xlink:href="#DejaVuSans-61" x="463.037109"/>
       <use xlink:href="#DejaVuSans-74" x="524.316406"/>
       <use xlink:href="#DejaVuSans-65" x="563.525391"/>
       <use xlink:href="#DejaVuSans-73" x="625.048828"/>
      </g>
     </g>
    </g>
    <g id="xtick_2">
     <g id="line2d_2">
      <g>
       <use xlink:href="#m6b313d2c9e" x="247.762222" y="420.97875" style="stroke: #000000; stroke-width: 0.8"/>
      </g>
     </g>
     <g id="text_2">
      <!-- United Kingdom -->
      <g transform="translate(180.669272 545.274647)rotate(-60)scale(0.16 -0.16)">
       <defs>
        <path id="DejaVuSans-4b" d="M 628 4666 
L 1259 4666 
L 1259 2694 
L 3353 4666 
L 4166 4666 
L 1850 2491 
L 4331 0 
L 3500 0 
L 1259 2247 
L 1259 0 
L 628 0 
L 628 4666 
z
" transform="scale(0.015625)"/>
        <path id="DejaVuSans-67" d="M 2906 1791 
Q 2906 2416 2648 2759 
Q 2391 3103 1925 3103 
Q 1463 3103 1205 2759 
Q 947 2416 947 1791 
Q 947 1169 1205 825 
Q 1463 481 1925 481 
Q 2391 481 2648 825 
Q 2906 1169 2906 1791 
z
M 3481 434 
Q 3481 -459 3084 -895 
Q 2688 -1331 1869 -1331 
Q 1566 -1331 1297 -1286 
Q 1028 -1241 775 -1147 
L 775 -588 
Q 1028 -725 1275 -790 
Q 1522 -856 1778 -856 
Q 2344 -856 2625 -561 
Q 2906 -266 2906 331 
L 2906 616 
Q 2728 306 2450 153 
Q 2172 0 1784 0 
Q 1141 0 747 490 
Q 353 981 353 1791 
Q 353 2603 747 3093 
Q 1141 3584 1784 3584 
Q 2172 3584 2450 3431 
Q 2728 3278 2906 2969 
L 2906 3500 
L 3481 3500 
L 3481 434 
z
" transform="scale(0.015625)"/>
        <path id="DejaVuSans-6f" d="M 1959 3097 
Q 1497 3097 1228 2736 
Q 959 2375 959 1747 
Q 959 1119 1226 758 
Q 1494 397 1959 397 
Q 2419 397 2687 759 
Q 2956 1122 2956 1747 
Q 2956 2369 2687 2733 
Q 2419 3097 1959 3097 
z
M 1959 3584 
Q 2709 3584 3137 3096 
Q 3566 2609 3566 1747 
Q 3566 888 3137 398 
Q 2709 -91 1959 -91 
Q 1206 -91 779 398 
Q 353 888 353 1747 
Q 353 2609 779 3096 
Q 1206 3584 1959 3584 
z
" transform="scale(0.015625)"/>
        <path id="DejaVuSans-6d" d="M 3328 2828 
Q 3544 3216 3844 3400 
Q 4144 3584 4550 3584 
Q 5097 3584 5394 3201 
Q 5691 2819 5691 2113 
L 5691 0 
L 5113 0 
L 5113 2094 
Q 5113 2597 4934 2840 
Q 4756 3084 4391 3084 
Q 3944 3084 3684 2787 
Q 3425 2491 3425 1978 
L 3425 0 
L 2847 0 
L 2847 2094 
Q 2847 2600 2669 2842 
Q 2491 3084 2119 3084 
Q 1678 3084 1418 2786 
Q 1159 2488 1159 1978 
L 1159 0 
L 581 0 
L 581 3500 
L 1159 3500 
L 1159 2956 
Q 1356 3278 1631 3431 
Q 1906 3584 2284 3584 
Q 2666 3584 2933 3390 
Q 3200 3197 3328 2828 
z
" transform="scale(0.015625)"/>
       </defs>
       <use xlink:href="#DejaVuSans-55"/>
       <use xlink:href="#DejaVuSans-6e" x="73.193359"/>
       <use xlink:href="#DejaVuSans-69" x="136.572266"/>
       <use xlink:href="#DejaVuSans-74" x="164.355469"/>
       <use xlink:href="#DejaVuSans-65" x="203.564453"/>
       <use xlink:href="#DejaVuSans-64" x="265.087891"/>
       <use xlink:href="#DejaVuSans-20" x="328.564453"/>
       <use xlink:href="#DejaVuSans-4b" x="360.351562"/>
       <use xlink:href="#DejaVuSans-69" x="425.927734"/>
       <use xlink:href="#DejaVuSans-6e" x="453.710938"/>
       <use xlink:href="#DejaVuSans-67" x="517.089844"/>
       <use xlink:href="#DejaVuSans-64" x="580.566406"/>
       <use xlink:href="#DejaVuSans-6f" x="644.042969"/>
       <use xlink:href="#DejaVuSans-6d" x="705.224609"/>
      </g>
     </g>
    </g>
    <g id="xtick_3">
     <g id="line2d_3">
      <g>
       <use xlink:href="#m6b313d2c9e" x="357.088241" y="420.97875" style="stroke: #000000; stroke-width: 0.8"/>
      </g>
     </g>
     <g id="text_3">
      <!-- France -->
      <g transform="translate(327.602791 480.136547)rotate(-60)scale(0.16 -0.16)">
       <defs>
        <path id="DejaVuSans-46" d="M 628 4666 
L 3309 4666 
L 3309 4134 
L 1259 4134 
L 1259 2759 
L 3109 2759 
L 3109 2228 
L 1259 2228 
L 1259 0 
L 628 0 
L 628 4666 
z
" transform="scale(0.015625)"/>
        <path id="DejaVuSans-72" d="M 2631 2963 
Q 2534 3019 2420 3045 
Q 2306 3072 2169 3072 
Q 1681 3072 1420 2755 
Q 1159 2438 1159 1844 
L 1159 0 
L 581 0 
L 581 3500 
L 1159 3500 
L 1159 2956 
Q 1341 3275 1631 3429 
Q 1922 3584 2338 3584 
Q 2397 3584 2469 3576 
Q 2541 3569 2628 3553 
L 2631 2963 
z
" transform="scale(0.015625)"/>
        <path id="DejaVuSans-63" d="M 3122 3366 
L 3122 2828 
Q 2878 2963 2633 3030 
Q 2388 3097 2138 3097 
Q 1578 3097 1268 2742 
Q 959 2388 959 1747 
Q 959 1106 1268 751 
Q 1578 397 2138 397 
Q 2388 397 2633 464 
Q 2878 531 3122 666 
L 3122 134 
Q 2881 22 2623 -34 
Q 2366 -91 2075 -91 
Q 1284 -91 818 406 
Q 353 903 353 1747 
Q 353 2603 823 3093 
Q 1294 3584 2113 3584 
Q 2378 3584 2631 3529 
Q 2884 3475 3122 3366 
z
" transform="scale(0.015625)"/>
       </defs>
       <use xlink:href="#DejaVuSans-46"/>
       <use xlink:href="#DejaVuSans-72" x="50.269531"/>
       <use xlink:href="#DejaVuSans-61" x="91.382812"/>
       <use xlink:href="#DejaVuSans-6e" x="152.662109"/>
       <use xlink:href="#DejaVuSans-63" x="216.041016"/>
       <use xlink:href="#DejaVuSans-65" x="271.021484"/>
      </g>
     </g>
    </g>
    <g id="xtick_4">
     <g id="line2d_4">
      <g>
       <use xlink:href="#m6b313d2c9e" x="466.414259" y="420.97875" style="stroke: #000000; stroke-width: 0.8"/>
      </g>
     </g>
     <g id="text_4">
      <!-- Germany -->
      <g transform="translate(426.76256 497.745008)rotate(-60)scale(0.16 -0.16)">
       <defs>
        <path id="DejaVuSans-47" d="M 3809 666 
L 3809 1919 
L 2778 1919 
L 2778 2438 
L 4434 2438 
L 4434 434 
Q 4069 175 3628 42 
Q 3188 -91 2688 -91 
Q 1594 -91 976 548 
Q 359 1188 359 2328 
Q 359 3472 976 4111 
Q 1594 4750 2688 4750 
Q 3144 4750 3555 4637 
Q 3966 4525 4313 4306 
L 4313 3634 
Q 3963 3931 3569 4081 
Q 3175 4231 2741 4231 
Q 1884 4231 1454 3753 
Q 1025 3275 1025 2328 
Q 1025 1384 1454 906 
Q 1884 428 2741 428 
Q 3075 428 3337 486 
Q 3600 544 3809 666 
z
" transform="scale(0.015625)"/>
        <path id="DejaVuSans-79" d="M 2059 -325 
Q 1816 -950 1584 -1140 
Q 1353 -1331 966 -1331 
L 506 -1331 
L 506 -850 
L 844 -850 
Q 1081 -850 1212 -737 
Q 1344 -625 1503 -206 
L 1606 56 
L 191 3500 
L 800 3500 
L 1894 763 
L 2988 3500 
L 3597 3500 
L 2059 -325 
z
" transform="scale(0.015625)"/>
       </defs>
       <use xlink:href="#DejaVuSans-47"/>
       <use xlink:href="#DejaVuSans-65" x="77.490234"/>
       <use xlink:href="#DejaVuSans-72" x="139.013672"/>
       <use xlink:href="#DejaVuSans-6d" x="178.376953"/>
       <use xlink:href="#DejaVuSans-61" x="275.789062"/>
       <use xlink:href="#DejaVuSans-6e" x="337.068359"/>
       <use xlink:href="#DejaVuSans-79" x="400.447266"/>
      </g>
     </g>
    </g>
    <g id="xtick_5">
     <g id="line2d_5">
      <g>
       <use xlink:href="#m6b313d2c9e" x="575.740278" y="420.97875" style="stroke: #000000; stroke-width: 0.8"/>
      </g>
     </g>
     <g id="text_5">
      <!-- Japan -->
      <g transform="translate(550.544829 472.706049)rotate(-60)scale(0.16 -0.16)">
       <defs>
        <path id="DejaVuSans-4a" d="M 628 4666 
L 1259 4666 
L 1259 325 
Q 1259 -519 939 -900 
Q 619 -1281 -91 -1281 
L -331 -1281 
L -331 -750 
L -134 -750 
Q 284 -750 456 -515 
Q 628 -281 628 325 
L 628 4666 
z
" transform="scale(0.015625)"/>
        <path id="DejaVuSans-70" d="M 1159 525 
L 1159 -1331 
L 581 -1331 
L 581 3500 
L 1159 3500 
L 1159 2969 
Q 1341 3281 1617 3432 
Q 1894 3584 2278 3584 
Q 2916 3584 3314 3078 
Q 3713 2572 3713 1747 
Q 3713 922 3314 415 
Q 2916 -91 2278 -91 
Q 1894 -91 1617 61 
Q 1341 213 1159 525 
z
M 3116 1747 
Q 3116 2381 2855 2742 
Q 2594 3103 2138 3103 
Q 1681 3103 1420 2742 
Q 1159 2381 1159 1747 
Q 1159 1113 1420 752 
Q 1681 391 2138 391 
Q 2594 391 2855 752 
Q 3116 1113 3116 1747 
z
" transform="scale(0.015625)"/>
       </defs>
       <use xlink:href="#DejaVuSans-4a"/>
       <use xlink:href="#DejaVuSans-61" x="29.492188"/>
       <use xlink:href="#DejaVuSans-70" x="90.771484"/>
       <use xlink:href="#DejaVuSans-61" x="154.248047"/>
       <use xlink:href="#DejaVuSans-6e" x="215.527344"/>
      </g>
     </g>
    </g>
    <g id="xtick_6">
     <g id="line2d_6">
      <g>
       <use xlink:href="#m6b313d2c9e" x="685.066297" y="420.97875" style="stroke: #000000; stroke-width: 0.8"/>
      </g>
     </g>
     <g id="text_6">
      <!-- Worldwide -->
      <g transform="translate(640.493347 506.268863)rotate(-60)scale(0.16 -0.16)">
       <defs>
        <path id="DejaVuSans-57" d="M 213 4666 
L 850 4666 
L 1831 722 
L 2809 4666 
L 3519 4666 
L 4500 722 
L 5478 4666 
L 6119 4666 
L 4947 0 
L 4153 0 
L 3169 4050 
L 2175 0 
L 1381 0 
L 213 4666 
z
" transform="scale(0.015625)"/>
        <path id="DejaVuSans-6c" d="M 603 4863 
L 1178 4863 
L 1178 0 
L 603 0 
L 603 4863 
z
" transform="scale(0.015625)"/>
        <path id="DejaVuSans-77" d="M 269 3500 
L 844 3500 
L 1563 769 
L 2278 3500 
L 2956 3500 
L 3675 769 
L 4391 3500 
L 4966 3500 
L 4050 0 
L 3372 0 
L 2619 2869 
L 1863 0 
L 1184 0 
L 269 3500 
z
" transform="scale(0.015625)"/>
       </defs>
       <use xlink:href="#DejaVuSans-57"/>
       <use xlink:href="#DejaVuSans-6f" x="93.001953"/>
       <use xlink:href="#DejaVuSans-72" x="154.183594"/>
       <use xlink:href="#DejaVuSans-6c" x="195.296875"/>
       <use xlink:href="#DejaVuSans-64" x="223.080078"/>
       <use xlink:href="#DejaVuSans-77" x="286.556641"/>
       <use xlink:href="#DejaVuSans-69" x="368.34375"/>
       <use xlink:href="#DejaVuSans-64" x="396.126953"/>
       <use xlink:href="#DejaVuSans-65" x="459.603516"/>
      </g>
     </g>
    </g>
   </g>
   <g id="matplotlib.axis_2">
    <g id="ytick_1">
     <g id="line2d_7">
      <defs>
       <path id="m2cbf85df63" d="M 0 0 
L -3.5 0 
" style="stroke: #000000; stroke-width: 0.8"/>
      </defs>
      <g>
       <use xlink:href="#m2cbf85df63" x="63.00125" y="420.97875" style="stroke: #000000; stroke-width: 0.8"/>
      </g>
     </g>
     <g id="text_7">
      <!-- 0.0 -->
      <g transform="translate(30.55625 427.0575)scale(0.16 -0.16)">
       <defs>
        <path id="DejaVuSans-30" d="M 2034 4250 
Q 1547 4250 1301 3770 
Q 1056 3291 1056 2328 
Q 1056 1369 1301 889 
Q 1547 409 2034 409 
Q 2525 409 2770 889 
Q 3016 1369 3016 2328 
Q 3016 3291 2770 3770 
Q 2525 4250 2034 4250 
z
M 2034 4750 
Q 2819 4750 3233 4129 
Q 3647 3509 3647 2328 
Q 3647 1150 3233 529 
Q 2819 -91 2034 -91 
Q 1250 -91 836 529 
Q 422 1150 422 2328 
Q 422 3509 836 4129 
Q 1250 4750 2034 4750 
z
" transform="scale(0.015625)"/>
        <path id="DejaVuSans-2e" d="M 684 794 
L 1344 794 
L 1344 0 
L 684 0 
L 684 794 
z
" transform="scale(0.015625)"/>
       </defs>
       <use xlink:href="#DejaVuSans-30"/>
       <use xlink:href="#DejaVuSans-2e" x="63.623047"/>
       <use xlink:href="#DejaVuSans-30" x="95.410156"/>
      </g>
     </g>
    </g>
    <g id="ytick_2">
     <g id="line2d_8">
      <g>
       <use xlink:href="#m2cbf85df63" x="63.00125" y="339.43875" style="stroke: #000000; stroke-width: 0.8"/>
      </g>
     </g>
     <g id="text_8">
      <!-- 0.2 -->
      <g transform="translate(30.55625 345.5175)scale(0.16 -0.16)">
       <defs>
        <path id="DejaVuSans-32" d="M 1228 531 
L 3431 531 
L 3431 0 
L 469 0 
L 469 531 
Q 828 903 1448 1529 
Q 2069 2156 2228 2338 
Q 2531 2678 2651 2914 
Q 2772 3150 2772 3378 
Q 2772 3750 2511 3984 
Q 2250 4219 1831 4219 
Q 1534 4219 1204 4116 
Q 875 4013 500 3803 
L 500 4441 
Q 881 4594 1212 4672 
Q 1544 4750 1819 4750 
Q 2544 4750 2975 4387 
Q 3406 4025 3406 3419 
Q 3406 3131 3298 2873 
Q 3191 2616 2906 2266 
Q 2828 2175 2409 1742 
Q 1991 1309 1228 531 
z
" transform="scale(0.015625)"/>
       </defs>
       <use xlink:href="#DejaVuSans-30"/>
       <use xlink:href="#DejaVuSans-2e" x="63.623047"/>
       <use xlink:href="#DejaVuSans-32" x="95.410156"/>
      </g>
     </g>
    </g>
    <g id="ytick_3">
     <g id="line2d_9">
      <g>
       <use xlink:href="#m2cbf85df63" x="63.00125" y="257.89875" style="stroke: #000000; stroke-width: 0.8"/>
      </g>
     </g>
     <g id="text_9">
      <!-- 0.4 -->
      <g transform="translate(30.55625 263.9775)scale(0.16 -0.16)">
       <defs>
        <path id="DejaVuSans-34" d="M 2419 4116 
L 825 1625 
L 2419 1625 
L 2419 4116 
z
M 2253 4666 
L 3047 4666 
L 3047 1625 
L 3713 1625 
L 3713 1100 
L 3047 1100 
L 3047 0 
L 2419 0 
L 2419 1100 
L 313 1100 
L 313 1709 
L 2253 4666 
z
" transform="scale(0.015625)"/>
       </defs>
       <use xlink:href="#DejaVuSans-30"/>
       <use xlink:href="#DejaVuSans-2e" x="63.623047"/>
       <use xlink:href="#DejaVuSans-34" x="95.410156"/>
      </g>
     </g>
    </g>
    <g id="ytick_4">
     <g id="line2d_10">
      <g>
       <use xlink:href="#m2cbf85df63" x="63.00125" y="176.35875" style="stroke: #000000; stroke-width: 0.8"/>
      </g>
     </g>
     <g id="text_10">
      <!-- 0.6 -->
      <g transform="translate(30.55625 182.4375)scale(0.16 -0.16)">
       <defs>
        <path id="DejaVuSans-36" d="M 2113 2584 
Q 1688 2584 1439 2293 
Q 1191 2003 1191 1497 
Q 1191 994 1439 701 
Q 1688 409 2113 409 
Q 2538 409 2786 701 
Q 3034 994 3034 1497 
Q 3034 2003 2786 2293 
Q 2538 2584 2113 2584 
z
M 3366 4563 
L 3366 3988 
Q 3128 4100 2886 4159 
Q 2644 4219 2406 4219 
Q 1781 4219 1451 3797 
Q 1122 3375 1075 2522 
Q 1259 2794 1537 2939 
Q 1816 3084 2150 3084 
Q 2853 3084 3261 2657 
Q 3669 2231 3669 1497 
Q 3669 778 3244 343 
Q 2819 -91 2113 -91 
Q 1303 -91 875 529 
Q 447 1150 447 2328 
Q 447 3434 972 4092 
Q 1497 4750 2381 4750 
Q 2619 4750 2861 4703 
Q 3103 4656 3366 4563 
z
" transform="scale(0.015625)"/>
       </defs>
       <use xlink:href="#DejaVuSans-30"/>
       <use xlink:href="#DejaVuSans-2e" x="63.623047"/>
       <use xlink:href="#DejaVuSans-36" x="95.410156"/>
      </g>
     </g>
    </g>
    <g id="ytick_5">
     <g id="line2d_11">
      <g>
       <use xlink:href="#m2cbf85df63" x="63.00125" y="94.81875" style="stroke: #000000; stroke-width: 0.8"/>
      </g>
     </g>
     <g id="text_11">
      <!-- 0.8 -->
      <g transform="translate(30.55625 100.8975)scale(0.16 -0.16)">
       <defs>
        <path id="DejaVuSans-38" d="M 2034 2216 
Q 1584 2216 1326 1975 
Q 1069 1734 1069 1313 
Q 1069 891 1326 650 
Q 1584 409 2034 409 
Q 2484 409 2743 651 
Q 3003 894 3003 1313 
Q 3003 1734 2745 1975 
Q 2488 2216 2034 2216 
z
M 1403 2484 
Q 997 2584 770 2862 
Q 544 3141 544 3541 
Q 544 4100 942 4425 
Q 1341 4750 2034 4750 
Q 2731 4750 3128 4425 
Q 3525 4100 3525 3541 
Q 3525 3141 3298 2862 
Q 3072 2584 2669 2484 
Q 3125 2378 3379 2068 
Q 3634 1759 3634 1313 
Q 3634 634 3220 271 
Q 2806 -91 2034 -91 
Q 1263 -91 848 271 
Q 434 634 434 1313 
Q 434 1759 690 2068 
Q 947 2378 1403 2484 
z
M 1172 3481 
Q 1172 3119 1398 2916 
Q 1625 2713 2034 2713 
Q 2441 2713 2670 2916 
Q 2900 3119 2900 3481 
Q 2900 3844 2670 4047 
Q 2441 4250 2034 4250 
Q 1625 4250 1398 4047 
Q 1172 3844 1172 3481 
z
" transform="scale(0.015625)"/>
       </defs>
       <use xlink:href="#DejaVuSans-30"/>
       <use xlink:href="#DejaVuSans-2e" x="63.623047"/>
       <use xlink:href="#DejaVuSans-38" x="95.410156"/>
      </g>
     </g>
    </g>
    <g id="ytick_6">
     <g id="line2d_12">
      <g>
       <use xlink:href="#m2cbf85df63" x="63.00125" y="13.27875" style="stroke: #000000; stroke-width: 0.8"/>
      </g>
     </g>
     <g id="text_12">
      <!-- 1.0 -->
      <g transform="translate(30.55625 19.3575)scale(0.16 -0.16)">
       <defs>
        <path id="DejaVuSans-31" d="M 794 531 
L 1825 531 
L 1825 4091 
L 703 3866 
L 703 4441 
L 1819 4666 
L 2450 4666 
L 2450 531 
L 3481 531 
L 3481 0 
L 794 0 
L 794 531 
z
" transform="scale(0.015625)"/>
       </defs>
       <use xlink:href="#DejaVuSans-31"/>
       <use xlink:href="#DejaVuSans-2e" x="63.623047"/>
       <use xlink:href="#DejaVuSans-30" x="95.410156"/>
      </g>
     </g>
    </g>
    <g id="text_13">
     <!-- Share of all games -->
     <g transform="translate(22.396875 310.419375)rotate(-90)scale(0.2 -0.2)">
      <defs>
       <path id="DejaVuSans-68" d="M 3513 2113 
L 3513 0 
L 2938 0 
L 2938 2094 
Q 2938 2591 2744 2837 
Q 2550 3084 2163 3084 
Q 1697 3084 1428 2787 
Q 1159 2491 1159 1978 
L 1159 0 
L 581 0 
L 581 4863 
L 1159 4863 
L 1159 2956 
Q 1366 3272 1645 3428 
Q 1925 3584 2291 3584 
Q 2894 3584 3203 3211 
Q 3513 2838 3513 2113 
z
" transform="scale(0.015625)"/>
       <path id="DejaVuSans-66" d="M 2375 4863 
L 2375 4384 
L 1825 4384 
Q 1516 4384 1395 4259 
Q 1275 4134 1275 3809 
L 1275 3500 
L 2222 3500 
L 2222 3053 
L 1275 3053 
L 1275 0 
L 697 0 
L 697 3053 
L 147 3053 
L 147 3500 
L 697 3500 
L 697 3744 
Q 697 4328 969 4595 
Q 1241 4863 1831 4863 
L 2375 4863 
z
" transform="scale(0.015625)"/>
      </defs>
      <use xlink:href="#DejaVuSans-53"/>
      <use xlink:href="#DejaVuSans-68" x="63.476562"/>
      <use xlink:href="#DejaVuSans-61" x="126.855469"/>
      <use xlink:href="#DejaVuSans-72" x="188.134766"/>
      <use xlink:href="#DejaVuSans-65" x="226.998047"/>
      <use xlink:href="#DejaVuSans-20" x="288.521484"/>
      <use xlink:href="#DejaVuSans-6f" x="320.308594"/>
      <use xlink:href="#DejaVuSans-66" x="381.490234"/>
      <use xlink:href="#DejaVuSans-20" x="416.695312"/>
      <use xlink:href="#DejaVuSans-61" x="448.482422"/>
      <use xlink:href="#DejaVuSans-6c" x="509.761719"/>
      <use xlink:href="#DejaVuSans-6c" x="537.544922"/>
      <use xlink:href="#DejaVuSans-20" x="565.328125"/>
      <use xlink:href="#DejaVuSans-67" x="597.115234"/>
      <use xlink:href="#DejaVuSans-61" x="660.591797"/>
      <use xlink:href="#DejaVuSans-6d" x="721.871094"/>
      <use xlink:href="#DejaVuSans-65" x="819.283203"/>
      <use xlink:href="#DejaVuSans-73" x="880.806641"/>
     </g>
    </g>
   </g>
   <g id="patch_57">
    <path d="M 63.00125 420.97875 
L 63.00125 13.27875 
" style="fill: none; stroke: #000000; stroke-width: 0.8; stroke-linejoin: miter; stroke-linecap: square"/>
   </g>
   <g id="patch_58">
    <path d="M 760.50125 420.97875 
L 760.50125 13.27875 
" style="fill: none; stroke: #000000; stroke-width: 0.8; stroke-linejoin: miter; stroke-linecap: square"/>
   </g>
   <g id="patch_59">
    <path d="M 63.00125 420.97875 
L 760.50125 420.97875 
" style="fill: none; stroke: #000000; stroke-width: 0.8; stroke-linejoin: miter; stroke-linecap: square"/>
   </g>
   <g id="patch_60">
    <path d="M 63.00125 13.27875 
L 760.50125 13.27875 
" style="fill: none; stroke: #000000; stroke-width: 0.8; stroke-linejoin: miter; stroke-linecap: square"/>
   </g>
   <g id="text_14">
    <g id="patch_61">
     <path d="M 769.65125 167.13325 
L 1006.93875 167.13325 
L 1006.93875 16.63275 
L 769.65125 16.63275 
z
" style="fill: #ffffff; opacity: 0.5; stroke: #808080; stroke-linejoin: miter"/>
    </g>
    <!-- Number of titles considered: -->
    <g transform="translate(774.45125 33.59025)scale(0.16 -0.16)">
     <defs>
      <path id="DejaVuSans-4e" d="M 628 4666 
L 1478 4666 
L 3547 763 
L 3547 4666 
L 4159 4666 
L 4159 0 
L 3309 0 
L 1241 3903 
L 1241 0 
L 628 0 
L 628 4666 
z
" transform="scale(0.015625)"/>
      <path id="DejaVuSans-75" d="M 544 1381 
L 544 3500 
L 1119 3500 
L 1119 1403 
Q 1119 906 1312 657 
Q 1506 409 1894 409 
Q 2359 409 2629 706 
Q 2900 1003 2900 1516 
L 2900 3500 
L 3475 3500 
L 3475 0 
L 2900 0 
L 2900 538 
Q 2691 219 2414 64 
Q 2138 -91 1772 -91 
Q 1169 -91 856 284 
Q 544 659 544 1381 
z
M 1991 3584 
L 1991 3584 
z
" transform="scale(0.015625)"/>
      <path id="DejaVuSans-62" d="M 3116 1747 
Q 3116 2381 2855 2742 
Q 2594 3103 2138 3103 
Q 1681 3103 1420 2742 
Q 1159 2381 1159 1747 
Q 1159 1113 1420 752 
Q 1681 391 2138 391 
Q 2594 391 2855 752 
Q 3116 1113 3116 1747 
z
M 1159 2969 
Q 1341 3281 1617 3432 
Q 1894 3584 2278 3584 
Q 2916 3584 3314 3078 
Q 3713 2572 3713 1747 
Q 3713 922 3314 415 
Q 2916 -91 2278 -91 
Q 1894 -91 1617 61 
Q 1341 213 1159 525 
L 1159 0 
L 581 0 
L 581 4863 
L 1159 4863 
L 1159 2969 
z
" transform="scale(0.015625)"/>
      <path id="DejaVuSans-3a" d="M 750 794 
L 1409 794 
L 1409 0 
L 750 0 
L 750 794 
z
M 750 3309 
L 1409 3309 
L 1409 2516 
L 750 2516 
L 750 3309 
z
" transform="scale(0.015625)"/>
     </defs>
     <use xlink:href="#DejaVuSans-4e"/>
     <use xlink:href="#DejaVuSans-75" x="74.804688"/>
     <use xlink:href="#DejaVuSans-6d" x="138.183594"/>
     <use xlink:href="#DejaVuSans-62" x="235.595703"/>
     <use xlink:href="#DejaVuSans-65" x="299.072266"/>
     <use xlink:href="#DejaVuSans-72" x="360.595703"/>
     <use xlink:href="#DejaVuSans-20" x="401.708984"/>
     <use xlink:href="#DejaVuSans-6f" x="433.496094"/>
     <use xlink:href="#DejaVuSans-66" x="494.677734"/>
     <use xlink:href="#DejaVuSans-20" x="529.882812"/>
     <use xlink:href="#DejaVuSans-74" x="561.669922"/>
     <use xlink:href="#DejaVuSans-69" x="600.878906"/>
     <use xlink:href="#DejaVuSans-74" x="628.662109"/>
     <use xlink:href="#DejaVuSans-6c" x="667.871094"/>
     <use xlink:href="#DejaVuSans-65" x="695.654297"/>
     <use xlink:href="#DejaVuSans-73" x="757.177734"/>
     <use xlink:href="#DejaVuSans-20" x="809.277344"/>
     <use xlink:href="#DejaVuSans-63" x="841.064453"/>
     <use xlink:href="#DejaVuSans-6f" x="896.044922"/>
     <use xlink:href="#DejaVuSans-6e" x="957.226562"/>
     <use xlink:href="#DejaVuSans-73" x="1020.605469"/>
     <use xlink:href="#DejaVuSans-69" x="1072.705078"/>
     <use xlink:href="#DejaVuSans-64" x="1100.488281"/>
     <use xlink:href="#DejaVuSans-65" x="1163.964844"/>
     <use xlink:href="#DejaVuSans-72" x="1225.488281"/>
     <use xlink:href="#DejaVuSans-65" x="1264.351562"/>
     <use xlink:href="#DejaVuSans-64" x="1325.875"/>
     <use xlink:href="#DejaVuSans-3a" x="1389.351562"/>
    </g>
    <!-- United States: 26517  -->
    <g transform="translate(774.45125 51.50675)scale(0.16 -0.16)">
     <defs>
      <path id="DejaVuSans-35" d="M 691 4666 
L 3169 4666 
L 3169 4134 
L 1269 4134 
L 1269 2991 
Q 1406 3038 1543 3061 
Q 1681 3084 1819 3084 
Q 2600 3084 3056 2656 
Q 3513 2228 3513 1497 
Q 3513 744 3044 326 
Q 2575 -91 1722 -91 
Q 1428 -91 1123 -41 
Q 819 9 494 109 
L 494 744 
Q 775 591 1075 516 
Q 1375 441 1709 441 
Q 2250 441 2565 725 
Q 2881 1009 2881 1497 
Q 2881 1984 2565 2268 
Q 2250 2553 1709 2553 
Q 1456 2553 1204 2497 
Q 953 2441 691 2322 
L 691 4666 
z
" transform="scale(0.015625)"/>
      <path id="DejaVuSans-37" d="M 525 4666 
L 3525 4666 
L 3525 4397 
L 1831 0 
L 1172 0 
L 2766 4134 
L 525 4134 
L 525 4666 
z
" transform="scale(0.015625)"/>
     </defs>
     <use xlink:href="#DejaVuSans-55"/>
     <use xlink:href="#DejaVuSans-6e" x="73.193359"/>
     <use xlink:href="#DejaVuSans-69" x="136.572266"/>
     <use xlink:href="#DejaVuSans-74" x="164.355469"/>
     <use xlink:href="#DejaVuSans-65" x="203.564453"/>
     <use xlink:href="#DejaVuSans-64" x="265.087891"/>
     <use xlink:href="#DejaVuSans-20" x="328.564453"/>
     <use xlink:href="#DejaVuSans-53" x="360.351562"/>
     <use xlink:href="#DejaVuSans-74" x="423.828125"/>
     <use xlink:href="#DejaVuSans-61" x="463.037109"/>
     <use xlink:href="#DejaVuSans-74" x="524.316406"/>
     <use xlink:href="#DejaVuSans-65" x="563.525391"/>
     <use xlink:href="#DejaVuSans-73" x="625.048828"/>
     <use xlink:href="#DejaVuSans-3a" x="677.148438"/>
     <use xlink:href="#DejaVuSans-20" x="710.839844"/>
     <use xlink:href="#DejaVuSans-32" x="742.626953"/>
     <use xlink:href="#DejaVuSans-36" x="806.25"/>
     <use xlink:href="#DejaVuSans-35" x="869.873047"/>
     <use xlink:href="#DejaVuSans-31" x="933.496094"/>
     <use xlink:href="#DejaVuSans-37" x="997.119141"/>
     <use xlink:href="#DejaVuSans-20" x="1060.742188"/>
    </g>
    <!-- United Kingdom: 9177  -->
    <g transform="translate(774.45125 69.42325)scale(0.16 -0.16)">
     <defs>
      <path id="DejaVuSans-39" d="M 703 97 
L 703 672 
Q 941 559 1184 500 
Q 1428 441 1663 441 
Q 2288 441 2617 861 
Q 2947 1281 2994 2138 
Q 2813 1869 2534 1725 
Q 2256 1581 1919 1581 
Q 1219 1581 811 2004 
Q 403 2428 403 3163 
Q 403 3881 828 4315 
Q 1253 4750 1959 4750 
Q 2769 4750 3195 4129 
Q 3622 3509 3622 2328 
Q 3622 1225 3098 567 
Q 2575 -91 1691 -91 
Q 1453 -91 1209 -44 
Q 966 3 703 97 
z
M 1959 2075 
Q 2384 2075 2632 2365 
Q 2881 2656 2881 3163 
Q 2881 3666 2632 3958 
Q 2384 4250 1959 4250 
Q 1534 4250 1286 3958 
Q 1038 3666 1038 3163 
Q 1038 2656 1286 2365 
Q 1534 2075 1959 2075 
z
" transform="scale(0.015625)"/>
     </defs>
     <use xlink:href="#DejaVuSans-55"/>
     <use xlink:href="#DejaVuSans-6e" x="73.193359"/>
     <use xlink:href="#DejaVuSans-69" x="136.572266"/>
     <use xlink:href="#DejaVuSans-74" x="164.355469"/>
     <use xlink:href="#DejaVuSans-65" x="203.564453"/>
     <use xlink:href="#DejaVuSans-64" x="265.087891"/>
     <use xlink:href="#DejaVuSans-20" x="328.564453"/>
     <use xlink:href="#DejaVuSans-4b" x="360.351562"/>
     <use xlink:href="#DejaVuSans-69" x="425.927734"/>
     <use xlink:href="#DejaVuSans-6e" x="453.710938"/>
     <use xlink:href="#DejaVuSans-67" x="517.089844"/>
     <use xlink:href="#DejaVuSans-64" x="580.566406"/>
     <use xlink:href="#DejaVuSans-6f" x="644.042969"/>
     <use xlink:href="#DejaVuSans-6d" x="705.224609"/>
     <use xlink:href="#DejaVuSans-3a" x="802.636719"/>
     <use xlink:href="#DejaVuSans-20" x="836.328125"/>
     <use xlink:href="#DejaVuSans-39" x="868.115234"/>
     <use xlink:href="#DejaVuSans-31" x="931.738281"/>
     <use xlink:href="#DejaVuSans-37" x="995.361328"/>
     <use xlink:href="#DejaVuSans-37" x="1058.984375"/>
     <use xlink:href="#DejaVuSans-20" x="1122.607422"/>
    </g>
    <!-- France: 4363  -->
    <g transform="translate(774.45125 87.33975)scale(0.16 -0.16)">
     <defs>
      <path id="DejaVuSans-33" d="M 2597 2516 
Q 3050 2419 3304 2112 
Q 3559 1806 3559 1356 
Q 3559 666 3084 287 
Q 2609 -91 1734 -91 
Q 1441 -91 1130 -33 
Q 819 25 488 141 
L 488 750 
Q 750 597 1062 519 
Q 1375 441 1716 441 
Q 2309 441 2620 675 
Q 2931 909 2931 1356 
Q 2931 1769 2642 2001 
Q 2353 2234 1838 2234 
L 1294 2234 
L 1294 2753 
L 1863 2753 
Q 2328 2753 2575 2939 
Q 2822 3125 2822 3475 
Q 2822 3834 2567 4026 
Q 2313 4219 1838 4219 
Q 1578 4219 1281 4162 
Q 984 4106 628 3988 
L 628 4550 
Q 988 4650 1302 4700 
Q 1616 4750 1894 4750 
Q 2613 4750 3031 4423 
Q 3450 4097 3450 3541 
Q 3450 3153 3228 2886 
Q 3006 2619 2597 2516 
z
" transform="scale(0.015625)"/>
     </defs>
     <use xlink:href="#DejaVuSans-46"/>
     <use xlink:href="#DejaVuSans-72" x="50.269531"/>
     <use xlink:href="#DejaVuSans-61" x="91.382812"/>
     <use xlink:href="#DejaVuSans-6e" x="152.662109"/>
     <use xlink:href="#DejaVuSans-63" x="216.041016"/>
     <use xlink:href="#DejaVuSans-65" x="271.021484"/>
     <use xlink:href="#DejaVuSans-3a" x="332.544922"/>
     <use xlink:href="#DejaVuSans-20" x="366.236328"/>
     <use xlink:href="#DejaVuSans-34" x="398.023438"/>
     <use xlink:href="#DejaVuSans-33" x="461.646484"/>
     <use xlink:href="#DejaVuSans-36" x="525.269531"/>
     <use xlink:href="#DejaVuSans-33" x="588.892578"/>
     <use xlink:href="#DejaVuSans-20" x="652.515625"/>
    </g>
    <!-- Germany: 5525  -->
    <g transform="translate(774.45125 105.25625)scale(0.16 -0.16)">
     <use xlink:href="#DejaVuSans-47"/>
     <use xlink:href="#DejaVuSans-65" x="77.490234"/>
     <use xlink:href="#DejaVuSans-72" x="139.013672"/>
     <use xlink:href="#DejaVuSans-6d" x="178.376953"/>
     <use xlink:href="#DejaVuSans-61" x="275.789062"/>
     <use xlink:href="#DejaVuSans-6e" x="337.068359"/>
     <use xlink:href="#DejaVuSans-79" x="400.447266"/>
     <use xlink:href="#DejaVuSans-3a" x="452.376953"/>
     <use xlink:href="#DejaVuSans-20" x="486.068359"/>
     <use xlink:href="#DejaVuSans-35" x="517.855469"/>
     <use xlink:href="#DejaVuSans-35" x="581.478516"/>
     <use xlink:href="#DejaVuSans-32" x="645.101562"/>
     <use xlink:href="#DejaVuSans-35" x="708.724609"/>
     <use xlink:href="#DejaVuSans-20" x="772.347656"/>
    </g>
    <!-- Japan: 14950  -->
    <g transform="translate(774.45125 123.17275)scale(0.16 -0.16)">
     <use xlink:href="#DejaVuSans-4a"/>
     <use xlink:href="#DejaVuSans-61" x="29.492188"/>
     <use xlink:href="#DejaVuSans-70" x="90.771484"/>
     <use xlink:href="#DejaVuSans-61" x="154.248047"/>
     <use xlink:href="#DejaVuSans-6e" x="215.527344"/>
     <use xlink:href="#DejaVuSans-3a" x="278.90625"/>
     <use xlink:href="#DejaVuSans-20" x="312.597656"/>
     <use xlink:href="#DejaVuSans-31" x="344.384766"/>
     <use xlink:href="#DejaVuSans-34" x="408.007812"/>
     <use xlink:href="#DejaVuSans-39" x="471.630859"/>
     <use xlink:href="#DejaVuSans-35" x="535.253906"/>
     <use xlink:href="#DejaVuSans-30" x="598.876953"/>
     <use xlink:href="#DejaVuSans-20" x="662.5"/>
    </g>
    <!-- Worldwide: 3600  -->
    <g transform="translate(774.45125 141.08925)scale(0.16 -0.16)">
     <use xlink:href="#DejaVuSans-57"/>
     <use xlink:href="#DejaVuSans-6f" x="93.001953"/>
     <use xlink:href="#DejaVuSans-72" x="154.183594"/>
     <use xlink:href="#DejaVuSans-6c" x="195.296875"/>
     <use xlink:href="#DejaVuSans-64" x="223.080078"/>
     <use xlink:href="#DejaVuSans-77" x="286.556641"/>
     <use xlink:href="#DejaVuSans-69" x="368.34375"/>
     <use xlink:href="#DejaVuSans-64" x="396.126953"/>
     <use xlink:href="#DejaVuSans-65" x="459.603516"/>
     <use xlink:href="#DejaVuSans-3a" x="521.126953"/>
     <use xlink:href="#DejaVuSans-20" x="554.818359"/>
     <use xlink:href="#DejaVuSans-33" x="586.605469"/>
     <use xlink:href="#DejaVuSans-36" x="650.228516"/>
     <use xlink:href="#DejaVuSans-30" x="713.851562"/>
     <use xlink:href="#DejaVuSans-30" x="777.474609"/>
     <use xlink:href="#DejaVuSans-20" x="841.097656"/>
    </g>
    <!-- Total: 64132  -->
    <g transform="translate(774.45125 159.00575)scale(0.16 -0.16)">
     <defs>
      <path id="DejaVuSans-54" d="M -19 4666 
L 3928 4666 
L 3928 4134 
L 2272 4134 
L 2272 0 
L 1638 0 
L 1638 4134 
L -19 4134 
L -19 4666 
z
" transform="scale(0.015625)"/>
     </defs>
     <use xlink:href="#DejaVuSans-54"/>
     <use xlink:href="#DejaVuSans-6f" x="44.083984"/>
     <use xlink:href="#DejaVuSans-74" x="105.265625"/>
     <use xlink:href="#DejaVuSans-61" x="144.474609"/>
     <use xlink:href="#DejaVuSans-6c" x="205.753906"/>
     <use xlink:href="#DejaVuSans-3a" x="233.537109"/>
     <use xlink:href="#DejaVuSans-20" x="267.228516"/>
     <use xlink:href="#DejaVuSans-36" x="299.015625"/>
     <use xlink:href="#DejaVuSans-34" x="362.638672"/>
     <use xlink:href="#DejaVuSans-31" x="426.261719"/>
     <use xlink:href="#DejaVuSans-33" x="489.884766"/>
     <use xlink:href="#DejaVuSans-32" x="553.507812"/>
     <use xlink:href="#DejaVuSans-20" x="617.130859"/>
    </g>
   </g>
   <g id="legend_1">
    <g id="patch_62">
     <path d="M 771.70125 412.97875 
L 971.99375 412.97875 
Q 975.19375 412.97875 975.19375 409.77875 
L 975.19375 223.49875 
Q 975.19375 220.29875 971.99375 220.29875 
L 771.70125 220.29875 
Q 768.50125 220.29875 768.50125 223.49875 
L 768.50125 409.77875 
Q 768.50125 412.97875 771.70125 412.97875 
z
" style="fill: #ffffff; opacity: 0.8; stroke: #808080; stroke-linejoin: miter"/>
    </g>
    <g id="patch_63">
     <path d="M 774.90125 238.85625 
L 806.90125 238.85625 
L 806.90125 227.65625 
L 774.90125 227.65625 
z
" style="fill: #ff7f00"/>
    </g>
    <g id="text_15">
     <!-- Puzzle -->
     <g transform="translate(819.70125 238.85625)scale(0.16 -0.16)">
      <defs>
       <path id="DejaVuSans-50" d="M 1259 4147 
L 1259 2394 
L 2053 2394 
Q 2494 2394 2734 2622 
Q 2975 2850 2975 3272 
Q 2975 3691 2734 3919 
Q 2494 4147 2053 4147 
L 1259 4147 
z
M 628 4666 
L 2053 4666 
Q 2838 4666 3239 4311 
Q 3641 3956 3641 3272 
Q 3641 2581 3239 2228 
Q 2838 1875 2053 1875 
L 1259 1875 
L 1259 0 
L 628 0 
L 628 4666 
z
" transform="scale(0.015625)"/>
       <path id="DejaVuSans-7a" d="M 353 3500 
L 3084 3500 
L 3084 2975 
L 922 459 
L 3084 459 
L 3084 0 
L 275 0 
L 275 525 
L 2438 3041 
L 353 3041 
L 353 3500 
z
" transform="scale(0.015625)"/>
      </defs>
      <use xlink:href="#DejaVuSans-50"/>
      <use xlink:href="#DejaVuSans-75" x="58.552734"/>
      <use xlink:href="#DejaVuSans-7a" x="121.931641"/>
      <use xlink:href="#DejaVuSans-7a" x="174.421875"/>
      <use xlink:href="#DejaVuSans-6c" x="226.912109"/>
      <use xlink:href="#DejaVuSans-65" x="254.695312"/>
     </g>
    </g>
    <g id="patch_64">
     <path d="M 774.90125 262.34125 
L 806.90125 262.34125 
L 806.90125 251.14125 
L 774.90125 251.14125 
z
" style="fill: #fdbf6f"/>
    </g>
    <g id="text_16">
     <!-- Role-Playing (RPG) -->
     <g transform="translate(819.70125 262.34125)scale(0.16 -0.16)">
      <defs>
       <path id="DejaVuSans-52" d="M 2841 2188 
Q 3044 2119 3236 1894 
Q 3428 1669 3622 1275 
L 4263 0 
L 3584 0 
L 2988 1197 
Q 2756 1666 2539 1819 
Q 2322 1972 1947 1972 
L 1259 1972 
L 1259 0 
L 628 0 
L 628 4666 
L 2053 4666 
Q 2853 4666 3247 4331 
Q 3641 3997 3641 3322 
Q 3641 2881 3436 2590 
Q 3231 2300 2841 2188 
z
M 1259 4147 
L 1259 2491 
L 2053 2491 
Q 2509 2491 2742 2702 
Q 2975 2913 2975 3322 
Q 2975 3731 2742 3939 
Q 2509 4147 2053 4147 
L 1259 4147 
z
" transform="scale(0.015625)"/>
       <path id="DejaVuSans-2d" d="M 313 2009 
L 1997 2009 
L 1997 1497 
L 313 1497 
L 313 2009 
z
" transform="scale(0.015625)"/>
       <path id="DejaVuSans-28" d="M 1984 4856 
Q 1566 4138 1362 3434 
Q 1159 2731 1159 2009 
Q 1159 1288 1364 580 
Q 1569 -128 1984 -844 
L 1484 -844 
Q 1016 -109 783 600 
Q 550 1309 550 2009 
Q 550 2706 781 3412 
Q 1013 4119 1484 4856 
L 1984 4856 
z
" transform="scale(0.015625)"/>
       <path id="DejaVuSans-29" d="M 513 4856 
L 1013 4856 
Q 1481 4119 1714 3412 
Q 1947 2706 1947 2009 
Q 1947 1309 1714 600 
Q 1481 -109 1013 -844 
L 513 -844 
Q 928 -128 1133 580 
Q 1338 1288 1338 2009 
Q 1338 2731 1133 3434 
Q 928 4138 513 4856 
z
" transform="scale(0.015625)"/>
      </defs>
      <use xlink:href="#DejaVuSans-52"/>
      <use xlink:href="#DejaVuSans-6f" x="64.982422"/>
      <use xlink:href="#DejaVuSans-6c" x="126.164062"/>
      <use xlink:href="#DejaVuSans-65" x="153.947266"/>
      <use xlink:href="#DejaVuSans-2d" x="215.470703"/>
      <use xlink:href="#DejaVuSans-50" x="251.554688"/>
      <use xlink:href="#DejaVuSans-6c" x="311.857422"/>
      <use xlink:href="#DejaVuSans-61" x="339.640625"/>
      <use xlink:href="#DejaVuSans-79" x="400.919922"/>
      <use xlink:href="#DejaVuSans-69" x="460.099609"/>
      <use xlink:href="#DejaVuSans-6e" x="487.882812"/>
      <use xlink:href="#DejaVuSans-67" x="551.261719"/>
      <use xlink:href="#DejaVuSans-20" x="614.738281"/>
      <use xlink:href="#DejaVuSans-28" x="646.525391"/>
      <use xlink:href="#DejaVuSans-52" x="685.539062"/>
      <use xlink:href="#DejaVuSans-50" x="755.021484"/>
      <use xlink:href="#DejaVuSans-47" x="815.324219"/>
      <use xlink:href="#DejaVuSans-29" x="892.814453"/>
     </g>
    </g>
    <g id="patch_65">
     <path d="M 774.90125 285.82625 
L 806.90125 285.82625 
L 806.90125 274.62625 
L 774.90125 274.62625 
z
" style="fill: #fb9a99"/>
    </g>
    <g id="text_17">
     <!-- Racing / Driving -->
     <g transform="translate(819.70125 285.82625)scale(0.16 -0.16)">
      <defs>
       <path id="DejaVuSans-2f" d="M 1625 4666 
L 2156 4666 
L 531 -594 
L 0 -594 
L 1625 4666 
z
" transform="scale(0.015625)"/>
       <path id="DejaVuSans-44" d="M 1259 4147 
L 1259 519 
L 2022 519 
Q 2988 519 3436 956 
Q 3884 1394 3884 2338 
Q 3884 3275 3436 3711 
Q 2988 4147 2022 4147 
L 1259 4147 
z
M 628 4666 
L 1925 4666 
Q 3281 4666 3915 4102 
Q 4550 3538 4550 2338 
Q 4550 1131 3912 565 
Q 3275 0 1925 0 
L 628 0 
L 628 4666 
z
" transform="scale(0.015625)"/>
       <path id="DejaVuSans-76" d="M 191 3500 
L 800 3500 
L 1894 563 
L 2988 3500 
L 3597 3500 
L 2284 0 
L 1503 0 
L 191 3500 
z
" transform="scale(0.015625)"/>
      </defs>
      <use xlink:href="#DejaVuSans-52"/>
      <use xlink:href="#DejaVuSans-61" x="67.232422"/>
      <use xlink:href="#DejaVuSans-63" x="128.511719"/>
      <use xlink:href="#DejaVuSans-69" x="183.492188"/>
      <use xlink:href="#DejaVuSans-6e" x="211.275391"/>
      <use xlink:href="#DejaVuSans-67" x="274.654297"/>
      <use xlink:href="#DejaVuSans-20" x="338.130859"/>
      <use xlink:href="#DejaVuSans-2f" x="369.917969"/>
      <use xlink:href="#DejaVuSans-20" x="403.609375"/>
      <use xlink:href="#DejaVuSans-44" x="435.396484"/>
      <use xlink:href="#DejaVuSans-72" x="512.398438"/>
      <use xlink:href="#DejaVuSans-69" x="553.511719"/>
      <use xlink:href="#DejaVuSans-76" x="581.294922"/>
      <use xlink:href="#DejaVuSans-69" x="640.474609"/>
      <use xlink:href="#DejaVuSans-6e" x="668.257812"/>
      <use xlink:href="#DejaVuSans-67" x="731.636719"/>
     </g>
    </g>
    <g id="patch_66">
     <path d="M 774.90125 309.31125 
L 806.90125 309.31125 
L 806.90125 298.11125 
L 774.90125 298.11125 
z
" style="fill: #e31a1c"/>
    </g>
    <g id="text_18">
     <!-- Sports -->
     <g transform="translate(819.70125 309.31125)scale(0.16 -0.16)">
      <use xlink:href="#DejaVuSans-53"/>
      <use xlink:href="#DejaVuSans-70" x="63.476562"/>
      <use xlink:href="#DejaVuSans-6f" x="126.953125"/>
      <use xlink:href="#DejaVuSans-72" x="188.134766"/>
      <use xlink:href="#DejaVuSans-74" x="229.248047"/>
      <use xlink:href="#DejaVuSans-73" x="268.457031"/>
     </g>
    </g>
    <g id="patch_67">
     <path d="M 774.90125 332.79625 
L 806.90125 332.79625 
L 806.90125 321.59625 
L 774.90125 321.59625 
z
" style="fill: #33a02c"/>
    </g>
    <g id="text_19">
     <!-- Strategy/Tactics -->
     <g transform="translate(819.70125 332.79625)scale(0.16 -0.16)">
      <use xlink:href="#DejaVuSans-53"/>
      <use xlink:href="#DejaVuSans-74" x="63.476562"/>
      <use xlink:href="#DejaVuSans-72" x="102.685547"/>
      <use xlink:href="#DejaVuSans-61" x="143.798828"/>
      <use xlink:href="#DejaVuSans-74" x="205.078125"/>
      <use xlink:href="#DejaVuSans-65" x="244.287109"/>
      <use xlink:href="#DejaVuSans-67" x="305.810547"/>
      <use xlink:href="#DejaVuSans-79" x="369.287109"/>
      <use xlink:href="#DejaVuSans-2f" x="428.466797"/>
      <use xlink:href="#DejaVuSans-54" x="462.158203"/>
      <use xlink:href="#DejaVuSans-61" x="506.742188"/>
      <use xlink:href="#DejaVuSans-63" x="568.021484"/>
      <use xlink:href="#DejaVuSans-74" x="623.001953"/>
      <use xlink:href="#DejaVuSans-69" x="662.210938"/>
      <use xlink:href="#DejaVuSans-63" x="689.994141"/>
      <use xlink:href="#DejaVuSans-73" x="744.974609"/>
     </g>
    </g>
    <g id="patch_68">
     <path d="M 774.90125 356.28125 
L 806.90125 356.28125 
L 806.90125 345.08125 
L 774.90125 345.08125 
z
" style="fill: #1f78b4"/>
    </g>
    <g id="text_20">
     <!-- Simulation -->
     <g transform="translate(819.70125 356.28125)scale(0.16 -0.16)">
      <use xlink:href="#DejaVuSans-53"/>
      <use xlink:href="#DejaVuSans-69" x="63.476562"/>
      <use xlink:href="#DejaVuSans-6d" x="91.259766"/>
      <use xlink:href="#DejaVuSans-75" x="188.671875"/>
      <use xlink:href="#DejaVuSans-6c" x="252.050781"/>
      <use xlink:href="#DejaVuSans-61" x="279.833984"/>
      <use xlink:href="#DejaVuSans-74" x="341.113281"/>
      <use xlink:href="#DejaVuSans-69" x="380.322266"/>
      <use xlink:href="#DejaVuSans-6f" x="408.105469"/>
      <use xlink:href="#DejaVuSans-6e" x="469.287109"/>
     </g>
    </g>
    <g id="patch_69">
     <path d="M 774.90125 379.76625 
L 806.90125 379.76625 
L 806.90125 368.56625 
L 774.90125 368.56625 
z
" style="fill: #a6cee3"/>
    </g>
    <g id="text_21">
     <!-- Adventure -->
     <g transform="translate(819.70125 379.76625)scale(0.16 -0.16)">
      <defs>
       <path id="DejaVuSans-41" d="M 2188 4044 
L 1331 1722 
L 3047 1722 
L 2188 4044 
z
M 1831 4666 
L 2547 4666 
L 4325 0 
L 3669 0 
L 3244 1197 
L 1141 1197 
L 716 0 
L 50 0 
L 1831 4666 
z
" transform="scale(0.015625)"/>
      </defs>
      <use xlink:href="#DejaVuSans-41"/>
      <use xlink:href="#DejaVuSans-64" x="66.658203"/>
      <use xlink:href="#DejaVuSans-76" x="130.134766"/>
      <use xlink:href="#DejaVuSans-65" x="189.314453"/>
      <use xlink:href="#DejaVuSans-6e" x="250.837891"/>
      <use xlink:href="#DejaVuSans-74" x="314.216797"/>
      <use xlink:href="#DejaVuSans-75" x="353.425781"/>
      <use xlink:href="#DejaVuSans-72" x="416.804688"/>
      <use xlink:href="#DejaVuSans-65" x="455.667969"/>
     </g>
    </g>
    <g id="patch_70">
     <path d="M 774.90125 403.25125 
L 806.90125 403.25125 
L 806.90125 392.05125 
L 774.90125 392.05125 
z
" style="fill: #b2df8a"/>
    </g>
    <g id="text_22">
     <!-- Action -->
     <g transform="translate(819.70125 403.25125)scale(0.16 -0.16)">
      <use xlink:href="#DejaVuSans-41"/>
      <use xlink:href="#DejaVuSans-63" x="66.658203"/>
      <use xlink:href="#DejaVuSans-74" x="121.638672"/>
      <use xlink:href="#DejaVuSans-69" x="160.847656"/>
      <use xlink:href="#DejaVuSans-6f" x="188.630859"/>
      <use xlink:href="#DejaVuSans-6e" x="249.8125"/>
     </g>
    </g>
   </g>
  </g>
 </g>
 <defs>
  <clipPath id="p5292be595d">
   <rect x="63.00125" y="13.27875" width="697.5" height="407.7"/>
  </clipPath>
 </defs>
</svg>
